<?xml version="1.0" encoding="UTF-8"?>
<!-- Generated by @neplex/vectorizer (Using visioncortex VTracer) -->
<svg version="1.1" xmlns="http://www.w3.org/2000/svg"  width="48" height="48" viewBox="0 0 192 192">

  <style>
    @media (prefers-color-scheme: dark) {
      svg { filter: invert(0%) hue-rotate(0deg) saturate(200%) contrast(113.99999999999999%) brightness(1); }
    }
  </style>
<path d="M0 0 C1.3 -0 2.5 -0 3.8 -0.1 C10.6 -0.1 16.4 0.1 22.4 3.2 C22.4 3.9 22.4 4.6 22.4 5.2 C24.1 5.6 25.7 5.9 27.4 6.2 C27.4 6.9 27.4 7.6 27.4 8.2 C28.4 8.2 29.4 8.2 30.4 8.2 C32.1 9.6 32.1 9.6 33.4 11.2 C33.4 11.9 33.4 12.6 33.4 13.2 C34 13.5 34.5 13.7 35.1 13.9 C39.8 16.5 43.3 20 46.8 24.1 C50.7 28.6 55.1 33.6 60.4 36.2 C60.4 36.9 60.4 37.6 60.4 38.2 C61.4 38.2 62.4 38.2 63.4 38.2 C63.4 39.2 63.4 40.2 63.4 41.2 C65.1 41.2 66.7 41.2 68.4 41.2 C68.4 41.9 68.4 42.6 68.4 43.2 C69.4 43.2 70.3 43.2 71.3 43.2 C72.6 43.2 73.9 43.1 75.1 43.1 C75.8 43.1 76.4 43.1 77 43.1 C81 43 83.7 43.7 87.4 45.2 C88.9 45 90.3 44.7 91.8 44.4 C95.2 44.1 98.3 45.8 101.4 47.2 C102 47.5 102.5 47.7 103.1 47.9 C107.5 49.9 111.7 52.6 113.1 57.4 C113.5 61.1 113.6 64.7 113.6 68.4 C113.6 69.1 113.6 69.8 113.7 70.5 C113.7 71.2 113.7 71.9 113.7 72.6 C113.7 73.3 113.7 73.9 113.7 74.5 C113.4 76.2 113.4 76.2 111.4 79.2 C106.8 79.2 102.2 79.2 97.4 79.2 C97.4 79.9 97.4 80.6 97.4 81.2 C96.8 81.5 96.2 81.8 95.5 82.1 C94.7 82.4 93.9 82.8 93.1 83.1 C92.3 83.5 91.4 83.8 90.6 84.2 C88.3 85.2 88.3 85.2 86.4 87.2 C84.3 87.4 84.3 87.4 82.4 87.2 C82.1 88.2 81.8 89.2 81.4 90.2 C80.8 90.2 80.1 90.2 79.4 90.2 C79.4 90.9 79.4 91.6 79.4 92.2 C78.8 92.3 78.8 92.3 78.1 92.4 C73.8 92.8 70 93.7 66.4 96.2 C66.1 96.9 65.8 97.6 65.4 98.2 C64.8 98.2 64.1 98.2 63.4 98.2 C63.1 99.2 62.8 100.2 62.4 101.2 C61.8 101.2 61.1 101.2 60.4 101.2 C60.4 101.9 60.4 102.6 60.4 103.2 C58 103.7 58 103.7 55.4 104.2 C55.3 105.1 55.2 105.9 55.1 106.7 C54.7 109.5 53.8 111.9 52.8 114.6 C51.1 119.4 51.5 123.3 52.4 128.2 C53.1 128.2 53.8 128.2 54.4 128.2 C55.8 131 55.5 133.2 55.4 136.2 C56.1 136.2 56.8 136.2 57.4 136.2 C58.9 137.6 58.9 137.6 60.6 139.5 C61.1 140.1 61.6 140.7 62.2 141.3 C63.6 143.5 63.7 144.7 63.4 147.2 C64.1 147.2 64.8 147.2 65.4 147.2 C65.8 149.9 66.1 152.5 66.4 155.2 C67.1 155.2 67.8 155.2 68.4 155.2 C68.4 158.9 68.4 162.5 68.4 166.2 C69.1 166.6 69.8 166.9 70.4 167.2 C21.3 167.2 -27.9 167.2 -78.6 167.2 C-78.6 154.1 -78.6 140.8 -78.6 127.2 C-74.8 125.4 -73.7 125 -69.8 125.1 C-69 125.1 -68.2 125.2 -67.4 125.2 C-66.8 125.2 -66.2 125.2 -65.6 125.2 C-65.2 125.9 -64.9 126.6 -64.6 127.2 C-63.4 127.3 -62.3 127.3 -61.2 127.4 C-60.6 127.4 -59.9 127.4 -59.3 127.4 C-57.3 127.4 -57.3 127.4 -55.6 125.2 C-53.4 125.1 -53.4 125.1 -51.6 125.2 C-51.1 123.8 -51.1 123.8 -50.6 122.2 C-49.9 122.2 -49.2 122.2 -48.6 122.2 C-48.7 114.3 -49.4 108.3 -53.5 101.4 C-54.6 99.1 -54.8 97.7 -54.6 95.2 C-55.2 95.2 -55.9 95.2 -56.6 95.2 C-61 88.6 -63.6 80.9 -65.6 73.2 C-66.2 73.2 -66.9 73.2 -67.6 73.2 C-67.6 70.6 -67.6 68 -67.6 65.2 C-68.6 64.9 -69.5 64.6 -70.6 64.2 C-70.6 63.4 -70.7 62.5 -70.7 61.7 C-70.8 60.5 -70.9 59.4 -71 58.3 C-71 57.7 -71.1 57.2 -71.1 56.6 C-71.2 53.7 -71.2 53.7 -72.6 51.2 C-73 46.2 -71.8 42.8 -69.6 38.2 C-68.9 38.2 -68.2 38.2 -67.6 38.2 C-67.6 37.5 -67.7 36.7 -67.8 35.9 C-67.5 32.7 -66.8 32.4 -64.6 30.2 C-63.7 29 -62.9 27.6 -62.2 26.3 C-60 22.7 -57.9 20.7 -54.6 18.2 C-54.2 17.6 -53.9 16.9 -53.6 16.2 C-52.9 16.2 -52.2 16.2 -51.6 16.2 C-51.5 15.8 -51.4 15.3 -51.2 14.9 C-50.4 12.8 -49.6 12.2 -47.6 11.2 C-44.9 11.1 -44.9 11.1 -42.6 11.2 C-42.6 10.3 -42.6 9.3 -42.6 8.2 C-40.9 8.2 -39.3 8.2 -37.6 8.2 C-37.6 7.6 -37.6 6.9 -37.6 6.2 C-36.9 6.1 -36.2 6 -35.5 5.9 C-34.6 5.7 -33.7 5.5 -32.8 5.4 C-31.5 5.1 -31.5 5.1 -30.1 4.9 C-27.6 4.4 -27.6 4.4 -25.5 3.2 C-23.2 2.1 -21.4 1.9 -18.9 1.7 C-12.5 1.2 -6.8 0 0 0 Z " fill="#4DC27D" transform="translate(78.5625,24.75)"/>
<path d="M0 0 C1.3 -0 2.5 -0 3.8 -0.1 C10.6 -0.1 16.4 0.1 22.4 3.2 C22.4 3.9 22.4 4.6 22.4 5.2 C24.1 5.6 25.7 5.9 27.4 6.2 C27.4 6.9 27.4 7.6 27.4 8.2 C28.4 8.2 29.4 8.2 30.4 8.2 C32.1 9.6 32.1 9.6 33.4 11.2 C33.4 11.9 33.4 12.6 33.4 13.2 C34 13.5 34.5 13.7 35.1 13.9 C39.8 16.5 43.3 20 46.8 24.1 C50.7 28.6 55.1 33.6 60.4 36.2 C60.4 36.9 60.4 37.6 60.4 38.2 C61.4 38.2 62.4 38.2 63.4 38.2 C63.4 39.2 63.4 40.2 63.4 41.2 C65.1 41.2 66.7 41.2 68.4 41.2 C68.4 41.9 68.4 42.6 68.4 43.2 C69.4 43.2 70.3 43.2 71.3 43.2 C72.6 43.2 73.9 43.1 75.1 43.1 C75.8 43.1 76.4 43.1 77 43.1 C81 43 83.7 43.7 87.4 45.2 C88.9 45 90.3 44.7 91.8 44.4 C95.2 44.1 98.3 45.8 101.4 47.2 C102 47.5 102.5 47.7 103.1 47.9 C107.5 49.9 111.7 52.6 113.1 57.4 C113.5 61.1 113.6 64.7 113.6 68.4 C113.6 69.1 113.6 69.8 113.7 70.5 C113.7 71.2 113.7 71.9 113.7 72.6 C113.7 73.3 113.7 73.9 113.7 74.5 C113.4 76.2 113.4 76.2 111.4 79.2 C106.8 79.2 102.2 79.2 97.4 79.2 C97.4 79.9 97.4 80.6 97.4 81.2 C96.8 81.5 96.2 81.8 95.5 82.1 C94.7 82.4 93.9 82.8 93.1 83.1 C92.3 83.5 91.4 83.8 90.6 84.2 C88.3 85.2 88.3 85.2 86.4 87.2 C84.3 87.4 84.3 87.4 82.4 87.2 C82.1 88.2 81.8 89.2 81.4 90.2 C80.8 90.2 80.1 90.2 79.4 90.2 C79.4 90.9 79.4 91.6 79.4 92.2 C78.8 92.3 78.8 92.3 78.1 92.4 C73.8 92.8 70 93.7 66.4 96.2 C66.1 96.9 65.8 97.6 65.4 98.2 C64.8 98.2 64.1 98.2 63.4 98.2 C63.1 99.2 62.8 100.2 62.4 101.2 C61.8 101.2 61.1 101.2 60.4 101.2 C60.4 101.9 60.4 102.6 60.4 103.2 C58 103.7 58 103.7 55.4 104.2 C55.3 105.1 55.2 105.9 55.1 106.7 C54.7 109.5 53.8 111.9 52.8 114.6 C51.1 119.4 51.5 123.3 52.4 128.2 C53.1 128.2 53.8 128.2 54.4 128.2 C55.8 131 55.5 133.2 55.4 136.2 C56.1 136.2 56.8 136.2 57.4 136.2 C58.9 137.6 58.9 137.6 60.6 139.5 C61.1 140.1 61.6 140.7 62.2 141.3 C63.6 143.5 63.7 144.7 63.4 147.2 C64.1 147.2 64.8 147.2 65.4 147.2 C65.8 149.9 66.1 152.5 66.4 155.2 C67.1 155.2 67.8 155.2 68.4 155.2 C68.4 158.9 68.4 162.5 68.4 166.2 C69.1 166.6 69.8 166.9 70.4 167.2 C67.1 167.2 63.8 167.2 60.4 167.2 C60.1 166.3 59.8 165.3 59.5 164.3 C55.5 151.2 55.5 151.2 47.4 140.2 C39.4 131.3 39.4 131.3 39.9 126.2 C40.7 123.2 41.8 120.3 42.9 117.4 C44.1 114.4 44.7 111.7 44.9 108.5 C45.2 104.6 46.4 102.1 48.5 98.9 C49.4 97.3 49.9 95.9 50.4 94.1 C51.4 90.6 53.8 88.6 56.4 86.2 C56.9 85.7 57.3 85.2 57.8 84.7 C60 82.8 61.9 82.4 64.7 81.8 C68 80.9 71.1 80.1 74.1 78.6 C76.5 77.5 78.5 77.1 81.2 76.9 C85.7 76.4 88.9 74.8 92.8 72.4 C93.4 72.1 94 71.8 94.6 71.4 C98 69.4 100.3 67.6 102.4 64.2 C103.1 64.2 103.8 64.2 104.4 64.2 C103 58.3 103 58.3 99.2 56.8 C92.8 54.4 86 54.1 79.2 53.4 C73.5 52.8 68.5 52 63.4 49.2 C63.4 48.6 63.4 47.9 63.4 47.2 C62.9 47.2 62.4 47.1 61.9 47 C49.7 43.3 40.8 31.7 32.2 22.9 C31.4 22.1 30.6 21.3 29.8 20.5 C29.1 19.7 28.4 19 27.6 18.2 C25.4 16.2 23.1 14.7 20.4 13.2 C19.4 12.6 18.5 11.9 17.4 11.2 C14.7 11 12 10.9 9.3 10.8 C7.7 10.8 6 10.8 4.4 10.7 C2.7 10.7 1 10.7 -0.8 10.6 C-2.5 10.6 -4.2 10.5 -5.9 10.5 C-10.1 10.4 -14.3 10.3 -18.6 10.2 C-18.6 10.9 -18.6 11.6 -18.6 12.2 C-19.2 12.3 -19.8 12.3 -20.5 12.3 C-30.3 12.8 -41.2 15.2 -47.6 23.2 C-48.5 24.3 -49.5 25.3 -50.4 26.2 C-59 35.4 -62.5 43.7 -62.6 56.2 C-61.9 56.2 -61.2 56.2 -60.6 56.2 C-60.4 56.9 -60.2 57.6 -60 58.3 C-59.8 59.2 -59.5 60.1 -59.2 61.1 C-59 62 -58.8 62.8 -58.5 63.8 C-57.7 66.3 -57.7 66.3 -56 67.8 C-54.2 69.6 -54.2 70.5 -54.4 72.9 C-54.4 73.6 -54.4 74.2 -54.5 74.8 C-54.5 75.3 -54.5 75.8 -54.6 76.2 C-53.1 76.7 -53.1 76.7 -51.6 77.2 C-50.6 80.5 -49.6 83.8 -48.6 87.2 C-47.6 87.2 -46.6 87.2 -45.6 87.2 C-45.6 86.6 -45.6 86 -45.6 85.4 C-45.7 79.6 -45.3 74 -44.6 68.2 C-43.9 68.2 -43.2 68.2 -42.6 68.2 C-42.6 67.6 -42.6 67.6 -42.7 66.9 C-42.7 65.9 -42.7 65.9 -42.8 65 C-42.8 64.1 -42.8 64.1 -42.9 63.2 C-42.6 61.2 -42.6 61.2 -41.1 59.5 C-39.4 57 -38.9 55.1 -38.3 52.1 C-38.1 51.1 -37.9 50.1 -37.7 49.1 C-37.5 48.1 -37.3 47.1 -37.1 46 C-33.6 28.7 -33.6 28.7 -29.9 24.3 C-26.5 22.8 -23.4 22.8 -19.8 22.9 C-19 22.9 -18.2 22.9 -17.4 22.9 C-7.1 23.1 3.2 24.7 13.4 26.2 C13.6 26.7 13.7 27.2 13.8 27.7 C14.3 29.5 14.3 29.5 16.4 30.2 C13.1 31.9 9.4 31.5 5.7 31.6 C4 31.6 2.2 31.7 0.4 31.7 C-1.4 31.7 -3.3 31.8 -5.2 31.8 C-7 31.9 -8.9 31.9 -10.8 31.9 C-15.4 32 -20 32.2 -24.6 32.2 C-24.6 33 -24.7 33.7 -24.7 34.4 C-25.2 39.8 -25.7 45.1 -27.1 50.4 C-27.2 50.9 -27.3 51.5 -27.5 52.1 C-28.4 56.1 -28.4 56.1 -29.6 57.2 C-29.8 58.8 -30 60.3 -30.1 61.8 C-30.2 62.6 -30.3 63.5 -30.4 64.3 C-30.4 65 -30.5 65.6 -30.6 66.2 C-31.2 66.2 -31.9 66.2 -32.6 66.2 C-33.9 74 -34.9 81.4 -34.6 89.2 C-33.9 89.4 -33.3 89.6 -32.7 89.7 C-27.7 91 -27.7 91 -26.6 93.2 C-23.5 95.4 -20.4 96.4 -16.8 96.7 C-12.6 97.1 -9.4 98.5 -5.7 100.3 C0.2 103 5.9 103.6 12.3 103.9 C16.1 104.3 19.7 105.3 23.4 106.2 C23.5 100.1 23.5 94 23.5 87.9 C23.5 85.3 23.5 85.3 23.5 82.6 C23.6 70.4 23.6 70.4 22.4 58.2 C16.9 58.2 11.6 58.1 6.2 59 C2.6 59.5 -1 59.3 -4.6 59.2 C-3.4 63.2 -3.4 63.2 -1.6 66.8 C-0.6 68.3 -0.1 69.5 0.4 71.2 C1.2 74 2.6 75.9 4.4 78.2 C4.4 78.9 4.4 79.6 4.4 80.2 C5.8 79.9 7.1 79.6 8.4 79.2 C8.9 77.3 8.9 77.3 9.4 75.2 C8 74.8 8 74.8 6.4 74.2 C6.1 72.6 5.8 71 5.4 69.2 C6.5 69.2 7.6 69.1 8.8 69.1 C9.7 69 9.7 69 10.6 69 C13 69.3 13.9 70.4 15.4 72.2 C15.2 82 15.2 82 11 85.4 C7.7 87.2 5 87.5 1.4 86.2 C-1.7 83.6 -4.1 80.5 -6.6 77.2 C-7.1 76.6 -7.6 75.9 -8.1 75.2 C-12.5 69.4 -13.7 63.5 -12.6 56.2 C-10.3 52.1 -7.1 50.1 -2.6 49.1 C2.9 48 8.4 47.8 14 47.8 C15 47.8 16 47.7 17 47.7 C24.1 47.7 29.3 49.1 34.4 54.2 C35.1 59.9 35.2 65.6 35.4 71.2 C35.5 72.6 35.5 73.9 35.6 75.2 C35.7 79.7 35.8 84.2 35.9 88.6 C35.9 90.1 36 91.5 36 93.1 C36.1 102 35.3 109.2 29.4 116.2 C21.9 120.8 11.6 117.7 3.4 116.2 C3.4 115.6 3.4 114.9 3.4 114.2 C2.7 114.3 2 114.3 1.2 114.4 C0.2 114.4 -0.7 114.4 -1.8 114.4 C-3.2 114.5 -3.2 114.5 -4.7 114.5 C-7.5 114.3 -8.9 113.6 -11.2 112.1 C-13.7 110.5 -16.4 109.6 -19.1 108.6 C-19.7 108.4 -20.3 108.2 -20.8 108 C-23.7 106.9 -26.5 105.9 -29.6 105.2 C-29.6 104.6 -29.6 103.9 -29.6 103.2 C-30.9 102.9 -32.2 102.6 -33.6 102.2 C-33.6 101.6 -33.6 100.9 -33.6 100.2 C-34.1 100.2 -34.7 100.1 -35.2 100.1 C-38.5 98.9 -40.3 96.8 -42.6 94.2 C-42.6 95.2 -42.6 96.1 -42.7 97.1 C-42.7 97.6 -42.7 98.1 -42.8 98.6 C-42.5 100.6 -41.7 101.6 -40.6 103.2 C-38.9 108.6 -38.3 113.7 -38.6 119.2 C-39.6 119.6 -40.5 119.9 -41.6 120.2 C-41.7 121.3 -41.7 121.3 -41.8 122.4 C-43.6 129 -48.6 132.5 -54.6 135.2 C-55.3 135.6 -56 136 -56.7 136.4 C-60.7 137.9 -65.1 137.5 -69.4 137.4 C-70.3 137.4 -71.1 137.4 -72.1 137.3 C-74.2 137.3 -76.4 137.3 -78.6 137.2 C-78.6 133.9 -78.6 130.7 -78.6 127.2 C-74.8 125.4 -73.7 125 -69.8 125.1 C-69 125.1 -68.2 125.2 -67.4 125.2 C-66.8 125.2 -66.2 125.2 -65.6 125.2 C-65.2 125.9 -64.9 126.6 -64.6 127.2 C-63.4 127.3 -62.3 127.3 -61.2 127.4 C-60.6 127.4 -59.9 127.4 -59.3 127.4 C-57.3 127.4 -57.3 127.4 -55.6 125.2 C-53.4 125.1 -53.4 125.1 -51.6 125.2 C-51.1 123.8 -51.1 123.8 -50.6 122.2 C-49.9 122.2 -49.2 122.2 -48.6 122.2 C-48.7 114.3 -49.4 108.3 -53.5 101.4 C-54.6 99.1 -54.8 97.7 -54.6 95.2 C-55.2 95.2 -55.9 95.2 -56.6 95.2 C-61 88.6 -63.6 80.9 -65.6 73.2 C-66.2 73.2 -66.9 73.2 -67.6 73.2 C-67.6 70.6 -67.6 68 -67.6 65.2 C-68.6 64.9 -69.5 64.6 -70.6 64.2 C-70.6 63.4 -70.7 62.5 -70.7 61.7 C-70.8 60.5 -70.9 59.4 -71 58.3 C-71 57.7 -71.1 57.2 -71.1 56.6 C-71.2 53.7 -71.2 53.7 -72.6 51.2 C-73 46.2 -71.8 42.8 -69.6 38.2 C-68.9 38.2 -68.2 38.2 -67.6 38.2 C-67.6 37.5 -67.7 36.7 -67.8 35.9 C-67.5 32.7 -66.8 32.4 -64.6 30.2 C-63.7 29 -62.9 27.6 -62.2 26.3 C-60 22.7 -57.9 20.7 -54.6 18.2 C-54.2 17.6 -53.9 16.9 -53.6 16.2 C-52.9 16.2 -52.2 16.2 -51.6 16.2 C-51.5 15.8 -51.4 15.3 -51.2 14.9 C-50.4 12.8 -49.6 12.2 -47.6 11.2 C-44.9 11.1 -44.9 11.1 -42.6 11.2 C-42.6 10.3 -42.6 9.3 -42.6 8.2 C-40.9 8.2 -39.3 8.2 -37.6 8.2 C-37.6 7.6 -37.6 6.9 -37.6 6.2 C-36.9 6.1 -36.2 6 -35.5 5.9 C-34.6 5.7 -33.7 5.5 -32.8 5.4 C-31.5 5.1 -31.5 5.1 -30.1 4.9 C-27.6 4.4 -27.6 4.4 -25.5 3.2 C-23.2 2.1 -21.4 1.9 -18.9 1.7 C-12.5 1.2 -6.8 0 0 0 Z " fill="#0D0F09" transform="translate(78.5625,24.75)"/>
<path d="M0 0 C5.9 -0.1 11.8 -0.2 17.7 -0.2 C19.4 -0.3 21 -0.3 22.8 -0.4 C25.2 -0.4 25.2 -0.4 27.6 -0.4 C29.9 -0.4 29.9 -0.4 32.1 -0.5 C36.5 0.1 37.9 1 41 4 C41.8 4.5 42.6 4.9 43.5 5.4 C46.6 7.4 48.9 9.7 51.5 12.3 C52.5 13.3 53.6 14.3 54.6 15.4 C56.2 17 56.2 17 57.8 18.6 C58.9 19.7 60 20.8 61.1 21.9 C69 29.9 69 29.9 69 31 C65 31.5 65 31.5 61 32 C60.7 33 60.3 34 60 35 C59.3 35 58.7 35 58 35 C58.5 41.9 58.5 41.9 59 49 C58.3 49 57.7 49 57 49 C57 64.2 57 79.4 57 95 C56 95 55 95 54 95 C54 94.1 53.9 93.1 53.9 92.1 C55.8 66.2 55.8 66.2 50.7 42.9 C44.7 38.6 39.8 38.3 32.6 38.6 C31.6 38.6 30.6 38.6 29.6 38.6 C17.7 38.6 17.7 38.6 7.8 44.3 C5.5 49 6.3 54.9 8.1 59.7 C9.8 63.1 12.2 65.8 14.8 68.5 C16 70 16 70 16 72 C16.7 72.2 16.7 72.2 17.4 72.4 C19 73 19 73 20 75 C25.5 75.5 25.5 75.5 30.4 73.6 C33 70.4 32.8 65.9 33 62 C30.8 59.8 30.3 59.7 27.4 59.4 C26.7 59.3 26.1 59.2 25.5 59.1 C25 59.1 24.5 59.1 24 59 C25.1 62.7 25.1 62.7 28 65 C27.7 66.7 27.3 68.3 27 70 C25.7 70 24.4 70 23 70 C19.7 65.8 17.5 62.1 16 57 C15.6 56.5 15.3 56 14.9 55.4 C13.6 53.3 13.9 51.4 14 49 C33 46.3 33 46.3 41 47 C45.7 51.7 43.1 67.6 43.1 73.7 C43.1 75.1 43.1 76.4 43.1 77.9 C43.1 79.2 43.1 80.5 43.1 81.9 C43.1 83.1 43.1 84.3 43.1 85.5 C43 89.1 42.6 92.5 42 96 C40.9 95.9 39.9 95.7 38.8 95.6 C35.7 95.2 32.7 94.9 29.6 94.7 C22.3 94.2 16.1 92.4 9.4 89.4 C6.9 88.2 4.8 87.8 2 87.6 C-2.3 87.2 -5.4 85.4 -9 83 C-9 82.3 -9 81.7 -9 81 C-9.6 80.9 -10.2 80.7 -10.8 80.6 C-15.9 79.3 -15.9 79.3 -17 77 C-18 69.9 -15.8 62.8 -14 56 C-13.3 56 -12.7 56 -12 56 C-12 55.4 -12 54.8 -12.1 54.2 C-12.1 53.4 -12.1 52.6 -12.1 51.8 C-12.1 51 -12.2 50.3 -12.2 49.5 C-12 47.2 -11.5 45.7 -10.6 43.6 C-9.2 39.8 -8.6 35.7 -7.9 31.7 C-7.7 30.8 -7.5 29.8 -7.3 28.9 C-6.9 26.6 -6.4 24.3 -6 22 C-2.2 20.7 1.2 20.8 5.2 20.7 C6.8 20.6 8.4 20.6 10.1 20.6 C12.6 20.5 12.6 20.5 15.2 20.4 C16.9 20.4 18.6 20.4 20.3 20.3 C24.6 20.2 28.8 20.1 33 20 C32.5 18.5 32.5 18.5 32 17 C21 15.3 10 13.7 -1.2 13.7 C-2.3 13.7 -2.3 13.7 -3.4 13.7 C-8.6 13.7 -8.6 13.7 -13 16 C-14 18.3 -14.5 20.7 -15.1 23.2 C-15.2 23.9 -15.4 24.6 -15.6 25.3 C-16.4 29 -17.1 32.6 -17.8 36.3 C-17.9 36.9 -18.1 37.6 -18.2 38.3 C-18.4 39.6 -18.7 40.8 -18.9 42.1 C-19.5 45.9 -20.6 48 -23 51 C-23.6 52.9 -23.6 52.9 -23.7 54.8 C-23.8 55.4 -23.8 56 -23.9 56.6 C-23.9 57.1 -24 57.5 -24 58 C-24.7 58 -25.3 58 -26 58 C-26 58.5 -26 59.1 -26 59.6 C-25.9 65.5 -26.3 71.2 -27 77 C-28 77 -29 77 -30 77 C-30.5 75.9 -31 74.8 -31.4 73.7 C-31.7 73.1 -32 72.5 -32.2 71.8 C-33 70 -33 70 -33.5 68.3 C-33.9 66.8 -33.9 66.8 -36 66 C-36 63.7 -36 61.4 -36 59 C-37 58.7 -38 58.3 -39 58 C-39.5 56.8 -40 55.5 -40.5 54.2 C-40.8 53.6 -41.1 52.9 -41.3 52.1 C-42 50 -42.1 48.3 -42 46 C-42.7 46 -43.3 46 -44 46 C-45.3 30.6 -38.7 20.7 -28 10 C-25.5 7.9 -23 6.3 -20 5 C-19.3 4.7 -18.6 4.4 -17.9 4 C-11.9 1.7 -6.4 1.7 0 2 C0 1.3 0 0.7 0 0 Z " fill="#4CC07B" transform="translate(60,35)"/>
<path d="M0 0 C0.8 0 1.5 0 2.3 0 C12.7 0.2 23 1.8 33.2 3.4 C33.3 3.8 33.4 4.3 33.6 4.8 C34.1 6.6 34.1 6.6 36.2 7.4 C32.8 9.1 29.2 8.6 25.5 8.7 C22.8 8.8 22.8 8.8 20.1 8.8 C18.3 8.9 16.5 8.9 14.6 8.9 C12.7 9 10.9 9 9 9.1 C4.4 9.2 -0.2 9.3 -4.8 9.4 C-4.9 10.1 -4.9 10.8 -5 11.5 C-5.4 17 -6 22.2 -7.3 27.5 C-7.4 28.1 -7.6 28.6 -7.7 29.2 C-8.7 33.2 -8.7 33.2 -9.8 34.4 C-10 35.9 -10.2 37.4 -10.4 38.9 C-10.5 39.8 -10.5 40.6 -10.6 41.4 C-10.7 42.4 -10.7 42.4 -10.8 43.4 C-11.5 43.4 -12.1 43.4 -12.8 43.4 C-14.2 51.1 -15.1 58.5 -14.8 66.4 C-13.9 66.6 -13.9 66.6 -12.9 66.8 C-8 68.1 -8 68.1 -6.8 70.4 C-3.8 72.6 -0.7 73.5 3 73.8 C7.1 74.2 10.3 75.6 14 77.4 C19.9 80.1 25.6 80.7 32 81 C35.9 81.4 39.5 82.4 43.2 83.4 C43.2 77.3 43.2 71.1 43.2 65 C43.3 62.4 43.3 62.4 43.3 59.8 C43.3 47.5 43.3 47.5 42.2 35.4 C36.7 35.3 31.4 35.2 26 36.2 C22.4 36.6 18.8 36.4 15.2 36.4 C16.3 40.3 16.3 40.3 18.2 43.9 C19.2 45.4 19.6 46.6 20.1 48.3 C21 51.1 22.4 53.1 24.2 55.4 C24.2 56 24.2 56.7 24.2 57.4 C26.2 56.9 26.2 56.9 28.2 56.4 C28.5 55.1 28.8 53.7 29.2 52.4 C28.2 52 27.2 51.7 26.2 51.4 C25.9 49.7 25.5 48.1 25.2 46.4 C26.3 46.3 27.4 46.2 28.5 46.2 C29.4 46.1 29.4 46.1 30.4 46.1 C32.8 46.5 33.6 47.6 35.2 49.4 C35 59.1 35 59.1 30.8 62.5 C27.5 64.3 24.7 64.6 21.2 63.4 C18 60.7 15.6 57.7 13.2 54.4 C12.7 53.7 12.1 53 11.6 52.4 C7.2 46.6 6 40.7 7.2 33.4 C9.4 29.2 12.7 27.2 17.2 26.2 C22.7 25.1 28.1 25 33.8 24.9 C34.7 24.9 35.7 24.9 36.7 24.8 C43.9 24.8 49.1 26.2 54.2 31.4 C54.9 37 55 42.7 55.2 48.4 C55.2 49.7 55.3 51 55.3 52.3 C55.5 56.8 55.6 61.3 55.6 65.8 C55.7 67.2 55.7 68.7 55.8 70.2 C55.9 79.1 55.1 86.3 49.2 93.4 C41.7 98 31.4 94.8 23.2 93.4 C23.2 92.7 23.2 92.1 23.2 91.4 C22.5 91.4 21.7 91.4 21 91.5 C20 91.5 19 91.5 18 91.6 C16.6 91.6 16.6 91.6 15.1 91.7 C12.3 91.4 10.8 90.8 8.5 89.2 C6.1 87.7 3.3 86.8 0.6 85.8 C0.1 85.5 -0.5 85.3 -1.1 85.1 C-4 84 -6.8 83 -9.8 82.4 C-9.8 81.7 -9.8 81.1 -9.8 80.4 C-11.1 80 -12.5 79.7 -13.8 79.4 C-13.8 78.7 -13.8 78.1 -13.8 77.4 C-14.4 77.3 -14.9 77.3 -15.5 77.2 C-18.7 76 -20.5 73.9 -22.8 71.4 C-23.5 72.7 -24.1 74 -24.8 75.4 C-26.8 71.4 -28.8 67.5 -30.8 63.4 C-30.5 62.7 -30.2 62.1 -29.8 61.4 C-29.5 62.4 -29.2 63.4 -28.8 64.4 C-27.8 64.4 -26.8 64.4 -25.8 64.4 C-25.8 63.8 -25.8 63.1 -25.8 62.5 C-25.9 56.7 -25.6 51.1 -24.8 45.4 C-24.2 45.4 -23.5 45.4 -22.8 45.4 C-22.8 44.9 -22.9 44.5 -22.9 44 C-22.9 43.4 -23 42.8 -23 42.1 C-23 41.5 -23.1 40.9 -23.1 40.3 C-22.8 38.4 -22.8 38.4 -21.4 36.6 C-19.6 34.1 -19.1 32.2 -18.5 29.2 C-18.2 27.8 -18.2 27.8 -17.9 26.2 C-17.7 25.2 -17.5 24.2 -17.3 23.1 C-13.9 5.8 -13.9 5.8 -10.1 1.4 C-6.7 -0.1 -3.7 -0.1 0 0 Z " fill="#2D2C33" transform="translate(58.8125,47.625)"/>
<path d="M0 0 C0.3 0.7 0.7 1.3 1 2 C0 2.5 0 2.5 -1 3 C-1.7 5 -1.7 5 -2 7 C-1.5 7.2 -0.9 7.5 -0.4 7.8 C2.9 9.5 6.4 11.4 9 14 C10.7 14.2 12.4 14.4 14.1 14.6 C15 14.6 15.9 14.7 16.8 14.8 C17.6 14.9 18.3 14.9 19 15 C19.5 16.5 19.5 16.5 20 18 C23.3 18 26.6 18 30 18 C30.5 20.5 30.5 20.5 31 23 C31.7 23 32.4 23 33.1 23 C36.2 22.9 39.3 22.9 42.4 22.9 C43.5 22.9 44.5 22.8 45.6 22.8 C46.7 22.8 47.7 22.8 48.8 22.8 C50.2 22.8 50.2 22.8 51.7 22.8 C54 23 54 23 56 25 C58.1 25.2 58.1 25.2 60 25 C60.3 24.3 60.7 23.7 61 23 C62.7 23 64.3 23 66 23 C66.5 24.5 66.5 24.5 67 26 C69 26 71 26 73 26 C73.1 25.4 73.3 24.7 73.4 24.1 C74 22 74 22 75 21 C77.3 20.4 79.6 20 82 19.5 C84 19.2 84 19.2 85 18 C86.2 17.8 87.4 17.6 88.6 17.4 C89.2 17.4 89.8 17.3 90.5 17.2 C91 17.1 91.5 17.1 92 17 C92.3 16.3 92.7 15.7 93 15 C93.7 15 94.3 15 95 15 C95 13.7 95 12.4 95 11 C94 10.7 93 10.3 92 10 C91 7 91 7 90 4 C95.6 8 95.6 8 96 12 C96.5 12.1 96.9 12.2 97.4 12.3 C100.4 13.6 101.2 16.7 102.6 19.4 C102.9 20 103.2 20.6 103.5 21.2 C106.2 26.6 106.7 30.7 108 37 C62.1 37 16.3 37 -31 37 C-31 27.1 -31 17.2 -31 7 C-26.7 6.9 -26.7 6.9 -22.2 6.9 C-13.6 6.6 -7.3 4.7 0 0 Z " fill="#B69076" transform="translate(31,155)"/>
<path d="M0 0 C3 -0.1 6 -0 9 0 C9.9 -0 10.8 -0 11.8 -0 C18.5 0.2 20.9 1.4 25.2 6.5 C28.2 9 31 8.8 34.8 8.5 C38 7.8 38.9 6.5 41 4 C43.2 3.8 43.2 3.8 45 4 C45 4.7 45 5.3 45 6 C47.6 6.3 50.3 6.7 53 7 C53.3 6.7 53.7 6.3 54 6 C58.2 5.6 58.2 5.6 60 6 C60.4 6.5 60.8 7 61.2 7.5 C64 9.8 66.7 9.3 70.2 9.2 C70.8 9.2 71.5 9.2 72.2 9.1 C73.8 9.1 75.4 9.1 77 9 C77 10 77 11 77 12 C77.5 12.1 77.9 12.2 78.4 12.3 C80.5 13.2 80.7 14 81.6 16 C82.6 18.6 82.6 18.6 85 20 C85 21.3 85 22.6 85 24 C84.3 24 83.7 24 83 24 C82.5 25.5 82.5 25.5 82 27 C81.5 27 81.1 27.1 80.6 27.1 C76.8 27.5 76.8 27.5 73.5 29 C71 30.7 68 30.7 65 31 C64.3 32.3 63.7 33.6 63 35 C61 35 59 35 57 35 C56.7 34.3 56.3 33.7 56 33 C54.3 32.7 52.7 32.3 51 32 C50.7 33 50.3 34 50 35 C45.1 34.1 45.1 34.1 44 33 C42.3 32.8 40.6 32.7 38.9 32.7 C37.3 32.6 37.3 32.6 35.7 32.6 C34.6 32.5 33.6 32.5 32.4 32.4 C31.3 32.4 30.3 32.4 29.1 32.3 C26.4 32.2 23.7 32.1 21 32 C20.5 30 20.5 30 20 28 C16.7 27.7 13.4 27.3 10 27 C9.7 26.3 9.3 25.7 9 25 C8.3 25 7.6 24.9 6.9 24.9 C6 24.8 5.1 24.8 4.2 24.7 C3.3 24.6 2.4 24.6 1.5 24.5 C-1.4 23.9 -2.1 23.2 -4 21 C-5.6 20 -7.3 19 -9 18 C-10 17.3 -11 16.7 -12 16 C-11.7 14.3 -11.3 12.7 -11 11 C-10.3 11 -9.7 11 -9 11 C-9 10.3 -9 9.7 -9 9 C-7.7 9 -6.4 9 -5 9 C-5 8.3 -5 7.7 -5 7 C-4.3 7 -3.7 7 -3 7 C-3 5.7 -3 4.4 -3 3 C-2.3 3 -1.7 3 -1 3 C-0.7 2 -0.3 1 0 0 Z " fill="#FDFEFD" transform="translate(41,146)"/>
<path d="M0 0 C4.8 -0.1 9.3 -0.1 14 1 C15 1 16 1 17 1 C23.7 2.4 31 5 35 11 C36.3 15.3 36.2 19.7 36.2 24.1 C36.2 24.8 36.2 25.6 36.2 26.3 C36.2 27 36.2 27.7 36.2 28.4 C36.2 29 36.2 29.6 36.2 30.3 C36 32 36 32 34 35 C29.4 35 24.8 35 20 35 C20 35.7 20 36.3 20 37 C19.4 37.3 18.7 37.5 18.1 37.8 C17.3 38.2 16.5 38.5 15.6 38.9 C14.8 39.2 14 39.6 13.2 39.9 C10.9 40.9 10.9 40.9 9 43 C6.9 43.1 6.9 43.1 5 43 C4.7 44 4.3 45 4 46 C3.3 46 2.7 46 2 46 C2 46.7 2 47.3 2 48 C1.6 48 1.1 48.1 0.7 48.1 C-3.6 48.6 -7.4 49.5 -11 52 C-11.3 52.7 -11.7 53.3 -12 54 C-12.7 54 -13.3 54 -14 54 C-14.3 55 -14.7 56 -15 57 C-15.7 57 -16.3 57 -17 57 C-17 57.7 -17 58.3 -17 59 C-19.5 59.5 -19.5 59.5 -22 60 C-22.2 61.2 -22.2 61.2 -22.3 62.4 C-22.8 65.2 -23.6 67.7 -24.6 70.3 C-26.3 75.1 -26 79.1 -25 84 C-24.3 84 -23.7 84 -23 84 C-21.6 86.8 -21.9 88.9 -22 92 C-21.3 92 -20.7 92 -20 92 C-18.5 93.4 -18.5 93.4 -16.9 95.2 C-16.3 95.9 -15.8 96.5 -15.2 97.1 C-13.8 99.3 -13.7 100.4 -14 103 C-13.3 103 -12.7 103 -12 103 C-11.7 105.6 -11.3 108.3 -11 111 C-10.3 111 -9.7 111 -9 111 C-9 114.6 -9 118.3 -9 122 C-8.3 122.3 -7.7 122.7 -7 123 C-10.3 123 -13.6 123 -17 123 C-17.3 122 -17.6 121 -17.9 120 C-22 106.9 -22 106.9 -30 96 C-38.1 87.1 -38.1 87.1 -37.5 81.9 C-36.7 78.9 -35.6 76.1 -34.5 73.2 C-33.3 70.2 -32.7 67.5 -32.5 64.2 C-32.2 60.3 -31.1 57.9 -29 54.6 C-28 53 -27.5 51.7 -27.1 49.9 C-26 46.3 -23.7 44.4 -21 42 C-20.6 41.5 -20.1 41 -19.7 40.4 C-17.5 38.5 -15.6 38.2 -12.8 37.5 C-9.5 36.7 -6.4 35.8 -3.3 34.4 C-0.9 33.2 1.1 32.8 3.8 32.7 C8.2 32.1 11.5 30.5 15.3 28.2 C15.9 27.8 16.5 27.5 17.2 27.1 C20.5 25.2 22.9 23.4 25 20 C25.7 20 26.3 20 27 20 C25.6 14 25.6 14 21.8 12.6 C15.3 10.2 8.5 9.9 1.8 9.2 C-4 8.6 -8.9 7.8 -14 5 C-12 4 -12 4 -9.9 4.4 C-6.3 5.1 -3 5.1 0.6 5 C2 5 3.3 5 4.6 4.9 C5.2 4.9 5.8 4.9 6.4 4.9 C8.1 5 9.4 5.4 11 6 C11 5 11 4 11 3 C10.5 3 9.9 3.1 9.4 3.1 C8.3 3.1 8.3 3.1 7.2 3.2 C6.5 3.2 5.8 3.3 5 3.3 C2.5 2.9 1.6 2 0 0 Z " fill="#2D270D" transform="translate(156,69)"/>
<path d="M0 0 C0.6 0.3 1.2 0.6 1.9 1 C6.8 3.6 6.8 3.6 8 6 C14.6 8.9 22 9 29.1 9.8 C43.4 11.4 43.4 11.4 48 16 C48.1 18.6 48.1 18.6 48 21 C47.3 21 46.7 21 46 21 C45.8 21.6 45.6 22.2 45.3 22.8 C43.6 25.7 41.5 26.9 38.6 28.6 C38.1 28.9 37.7 29.2 37.2 29.5 C29.7 34.1 29.7 34.1 25.3 34.4 C21.2 34.8 18 36.2 14.3 38 C11.9 39 9.8 39.5 7.2 39.9 C3.4 40.7 1.4 41.9 -1 45 C-2 46 -2 46 -4 46 C-4.7 47.3 -5.3 48.6 -6 50 C-6.7 50 -7.3 50 -8 50 C-12.8 34.2 -14.5 18.4 -14 2 C-8.8 -1.2 -5.5 -3.1 0 0 Z " fill="#FDBD17" transform="translate(135,68)"/>
<path d="M0 0 C5.6 4 5.6 4 6 8 C6.5 8.1 6.9 8.2 7.4 8.3 C10.4 9.6 11.2 12.7 12.6 15.4 C12.9 16 13.2 16.6 13.5 17.2 C16.2 22.6 16.7 26.7 18 33 C-8.7 33 -35.5 33 -63 33 C-65.7 28.5 -68.4 24 -71.1 19.6 C-72.9 16.8 -75 15.5 -78 14 C-78 13.3 -78 12.7 -78 12 C-76 12 -74 12 -72 12 C-71.7 12.7 -71.3 13.3 -71 14 C-67.7 14.3 -64.4 14.7 -61 15 C-60.7 16.3 -60.3 17.6 -60 19 C-59.3 19 -58.6 19 -57.8 19 C-54.6 18.9 -51.4 18.9 -48.1 18.9 C-47 18.9 -45.9 18.8 -44.7 18.8 C-43.6 18.8 -42.6 18.8 -41.4 18.8 C-40.5 18.8 -39.5 18.8 -38.4 18.8 C-36 19 -36 19 -34 21 C-31.9 21.2 -31.9 21.2 -30 21 C-29.7 20.3 -29.3 19.7 -29 19 C-27.3 19 -25.7 19 -24 19 C-23.5 20.5 -23.5 20.5 -23 22 C-21 22 -19 22 -17 22 C-16.9 21.4 -16.7 20.7 -16.6 20.1 C-16 18 -16 18 -15 17 C-12.7 16.4 -10.4 16 -8 15.5 C-6 15.2 -6 15.2 -5 14 C-3.8 13.8 -2.6 13.6 -1.4 13.4 C-0.8 13.4 -0.2 13.3 0.5 13.2 C1 13.1 1.5 13.1 2 13 C2.3 12.3 2.7 11.7 3 11 C3.7 11 4.3 11 5 11 C5 9.7 5 8.4 5 7 C4 6.7 3 6.3 2 6 C1 3 1 3 0 0 Z " fill="#85584F" transform="translate(121,159)"/>
<path d="M0 0 C0.7 0.3 1.3 0.7 2 1 C1.5 1.6 1.1 2.1 0.6 2.7 C-6.9 12 -9.6 19.1 -10 31 C-9.3 31 -8.7 31 -8 31 C-7.8 31.7 -7.6 32.4 -7.4 33.1 C-7.2 34 -6.9 34.9 -6.7 35.8 C-6.4 36.7 -6.2 37.6 -5.9 38.5 C-5.2 41 -5.2 41 -3.4 42.6 C-1.6 44.4 -1.7 45.2 -1.8 47.7 C-1.8 48.3 -1.9 48.9 -1.9 49.6 C-1.9 50 -2 50.5 -2 51 C-0.5 51.5 -0.5 51.5 1 52 C1.1 52.7 1.2 53.4 1.4 54.1 C2.7 60.5 4.7 65.6 8.1 71.2 C12.6 78.7 14.4 85.1 14 94 C13 94.3 12 94.7 11 95 C10.9 96.1 10.9 96.1 10.8 97.1 C9 103.7 4 107.2 -2 110 C-2.7 110.4 -3.4 110.7 -4.1 111.1 C-8.1 112.7 -12.6 112.2 -16.8 112.1 C-18.1 112.1 -18.1 112.1 -19.5 112.1 C-21.7 112.1 -23.8 112 -26 112 C-26 108.7 -26 105.4 -26 102 C-22.3 100.1 -21.2 99.8 -17.2 99.9 C-16.5 99.9 -15.7 99.9 -14.8 99.9 C-14.2 100 -13.6 100 -13 100 C-12.7 100.7 -12.3 101.3 -12 102 C-10.9 102.1 -9.8 102.1 -8.6 102.1 C-8 102.1 -7.4 102.2 -6.7 102.2 C-4.7 102.2 -4.7 102.2 -3 100 C-0.9 99.9 -0.9 99.9 1 100 C1.5 98.5 1.5 98.5 2 97 C2.7 97 3.3 97 4 97 C3.9 89 3.2 83.1 -0.9 76.1 C-2.1 73.9 -2.2 72.5 -2 70 C-2.7 70 -3.3 70 -4 70 C-8.4 63.4 -11 55.7 -13 48 C-13.7 48 -14.3 48 -15 48 C-15 45.4 -15 42.7 -15 40 C-16 39.7 -17 39.3 -18 39 C-18.1 38.1 -18.1 37.3 -18.2 36.4 C-18.3 35.3 -18.4 34.2 -18.4 33.1 C-18.5 32.5 -18.5 31.9 -18.6 31.4 C-18.6 28.4 -18.6 28.4 -20 26 C-20.1 24 -20 22 -20 20 C-16.9 19 -15.1 19 -12 20 C-11.9 19.3 -11.8 18.6 -11.7 17.8 C-10.8 14.4 -9.3 12.2 -7.1 9.4 C-6.6 8.7 -6.6 8.7 -6.1 8 C-5 6.7 -4 5.3 -3 4 C-2 2.7 -1 1.3 0 0 Z " fill="#0F110A" transform="translate(26,50)"/>
<path d="M0 0 C1 -0 2 -0 3.1 -0 C12.4 -0.1 12.4 -0.1 16.2 3.3 C20.2 8.6 19.6 11.7 19.6 18.2 C19.7 21.5 19.7 21.5 19.7 24.8 C19.6 27.1 19.6 29.3 19.6 31.7 C19.6 34 19.6 36.2 19.7 38.6 C19.7 40.7 19.7 42.9 19.6 45.1 C19.6 47.1 19.6 49.1 19.6 51.2 C19.2 56.9 18.3 60.3 14.2 64.3 C13.3 64 12.3 63.7 11.2 63.3 C11.6 62 11.9 60.7 12.2 59.3 C12.5 51.3 12.5 43.4 12.5 35.4 C12.5 33.1 12.5 30.9 12.6 28.6 C12.6 26.5 12.6 24.4 12.6 22.2 C12.6 20.2 12.6 18.2 12.6 16.2 C12.3 11.8 12 9.7 9.2 6.3 C6 5.9 6 5.9 3.2 7.3 C1.5 7.5 -0.3 7.6 -2.1 7.6 C-3.2 7.7 -4.3 7.7 -5.4 7.8 C-6.5 7.8 -7.6 7.8 -8.8 7.9 C-10.5 7.9 -10.5 7.9 -12.3 8 C-15.1 8.1 -17.9 8.2 -20.8 8.3 C-20.5 13.8 -20.5 13.8 -17.3 17.9 C-14.8 20 -14.1 21.8 -13.2 24.9 C-12.5 27 -11.1 28.6 -9.8 30.3 C-9.8 31 -9.8 31.6 -9.8 32.3 C-8.4 32 -7.1 31.7 -5.8 31.3 C-5.4 30 -5.1 28.7 -4.8 27.3 C-5.7 27 -6.7 26.7 -7.8 26.3 C-8.2 23.8 -8.2 23.8 -8.8 21.3 C-7.6 21.2 -6.5 21.2 -5.4 21.1 C-4.5 21.1 -4.5 21.1 -3.6 21 C-1.2 21.4 -0.3 22.5 1.2 24.3 C1 34.1 1 34.1 -3.2 37.5 C-6.5 39.2 -9.2 39.6 -12.8 38.3 C-15.9 35.7 -18.3 32.6 -20.8 29.3 C-21.3 28.6 -21.8 28 -22.3 27.3 C-26.7 21.5 -27.9 15.6 -26.8 8.3 C-24.5 4.2 -21.3 2.2 -16.8 1.2 C-11.2 0 -5.7 -0 0 0 Z " fill="#2D2F35" transform="translate(92.75,72.6875)"/>
<path d="M0 0 C2.9 1.6 3.9 2.5 4.6 5.8 C4.7 7.1 4.7 8.3 4.8 9.6 C4.8 10.3 4.8 11 4.8 11.7 C4.9 13.4 4.9 15.1 4.9 16.8 C5 19.2 5.1 21.6 5.1 24 C5.3 28.4 5.4 32.9 5.4 37.4 C5.5 38.8 5.5 40.3 5.6 41.8 C5.7 50.7 4.9 57.9 -1 65 C-8.5 69.6 -18.8 66.4 -27 65 C-27 64.3 -27 63.7 -27 63 C-27.7 63 -28.5 63.1 -29.2 63.1 C-30.2 63.1 -31.2 63.2 -32.2 63.2 C-33.6 63.2 -33.6 63.2 -35.1 63.3 C-37.9 63 -39.4 62.4 -41.7 60.8 C-44.1 59.3 -46.9 58.4 -49.6 57.4 C-50.1 57.2 -50.7 56.9 -51.3 56.7 C-54.2 55.6 -57 54.7 -60 54 C-60 53.3 -60 52.7 -60 52 C-61.3 51.7 -62.6 51.3 -64 51 C-64 50.3 -64 49.7 -64 49 C-53.4 51.7 -53.4 51.7 -49.3 53.6 C-46.1 55.1 -43.1 55.5 -39.6 55.8 C-38 56 -38 56 -37 57 C-35.5 57.3 -34 57.6 -32.6 57.9 C-28.9 58.6 -25.6 59.4 -22.1 60.6 C-16.6 62.3 -11.7 62.3 -6 62 C-6 61.3 -6 60.7 -6 60 C-6.4 60 -6.9 60 -7.3 60.1 C-11.1 60.2 -14.1 59.9 -17.6 58.5 C-19.4 57.9 -21.2 57.4 -23 57 C-23 56.3 -23 55.7 -23 55 C-26 54.7 -28.9 54.3 -32 54 C-32 53.3 -32 52.7 -32 52 C-32.7 51.7 -33.3 51.3 -34 51 C-28.1 50.9 -28.1 50.9 -27 52 C-24.6 52.2 -22.3 52.4 -19.9 52.5 C-15.5 52.8 -11.3 53.9 -7 55 C-7 48.9 -7 42.8 -6.9 36.6 C-6.9 34 -6.9 34 -6.9 31.4 C-6.9 19.2 -6.9 19.2 -8 7 C-13.5 6.9 -18.8 6.8 -24.2 7.8 C-27.8 8.2 -31.4 8.1 -35 8 C-35 9.7 -35 11.3 -35 13 C-36 12 -37 11 -38 10 C-37.7 8.3 -37.3 6.7 -37 5 C-36.3 4.9 -35.6 4.9 -34.8 4.8 C-31.6 4.6 -28.3 4.3 -25.1 4.1 C-23.9 4 -22.8 3.9 -21.6 3.8 C-20.5 3.7 -19.5 3.6 -18.3 3.5 C-17.3 3.5 -16.3 3.4 -15.3 3.3 C-13 3.2 -13 3.2 -12 2 C-9.1 1.7 -7.6 1.6 -5.2 3.3 C-1.9 7.8 -2.9 13.3 -2.9 18.7 C-2.9 20.8 -2.9 22.9 -2.9 25.1 C-2.9 27.4 -2.9 29.6 -2.9 31.9 C-2.9 35.3 -2.9 35.3 -2.9 38.7 C-2.9 40.9 -2.9 43 -2.9 45.2 C-2.9 47.2 -2.9 49.2 -2.9 51.2 C-3 56 -3 56 -4 60 C0.3 58.4 0.1 57.8 2 53 C2.2 49.3 2.3 45.6 2.3 41.9 C2.3 39.8 2.3 37.6 2.3 35.3 C2.3 31.9 2.3 31.9 2.2 28.4 C2.3 26.2 2.3 23.9 2.3 21.5 C2.3 19.4 2.3 17.2 2.3 14.9 C2.3 11.9 2.3 11.9 2.3 8.9 C2.3 4 2.3 4 0 0 Z " fill="#324740" transform="translate(109,76)"/>
<path d="M0 0 C0.7 0 1.3 0 2 0 C2.3 3 2.7 5.9 3 9 C4 9.3 5 9.7 6 10 C5.3 10 4.7 10 4 10 C3.8 11.2 3.8 11.2 3.7 12.4 C3.2 15.2 2.4 17.7 1.4 20.3 C-0.3 25.1 0 29.1 1 34 C1.7 34 2.3 34 3 34 C4.4 36.8 4.1 38.9 4 42 C4.7 42 5.3 42 6 42 C7.5 43.4 7.5 43.4 9.1 45.2 C9.7 45.9 10.2 46.5 10.8 47.1 C12.2 49.3 12.3 50.4 12 53 C12.7 53 13.3 53 14 53 C14.3 55.6 14.7 58.3 15 61 C15.7 61 16.3 61 17 61 C17 64.6 17 68.3 17 72 C17.7 72.3 18.3 72.7 19 73 C15.7 73 12.4 73 9 73 C8.7 72 8.4 71 8.1 70 C4 56.9 4 56.9 -4 46 C-12.1 37.1 -12.1 37.1 -11.5 31.9 C-10.7 28.9 -9.6 26.1 -8.5 23.2 C-7.3 20.2 -6.8 17.6 -6.6 14.4 C-6.2 8.8 -3.1 4.6 0 0 Z " fill="#15120C" transform="translate(130,119)"/>
<path d="M0 0 C4.8 -0.1 9.3 -0.1 14 1 C15 1 16 1 17 1 C23.7 2.4 31 5 35 11 C36.3 15.3 36.2 19.7 36.2 24.1 C36.2 24.8 36.2 25.6 36.2 26.3 C36.2 27 36.2 27.7 36.2 28.4 C36.2 29 36.2 29.6 36.2 30.3 C36 32.3 35.2 33.4 34 35 C30.2 35.1 26.7 35.2 23 34 C23.5 29 24.6 26.7 28 23 C24 25.3 20 27.6 16 30 C15.3 29.7 14.7 29.3 14 29 C14.7 28.5 15.4 28 16.2 27.5 C17.1 26.9 18 26.3 18.9 25.6 C19.4 25.3 19.9 25 20.4 24.7 C23.1 22.8 23.1 22.8 25 20 C25.7 20 26.3 20 27 20 C25.6 14 25.6 14 21.8 12.6 C15.3 10.2 8.5 9.9 1.8 9.2 C-4 8.6 -8.9 7.8 -14 5 C-12 4 -12 4 -9.9 4.4 C-6.3 5.1 -3 5.1 0.6 5 C2 5 3.3 5 4.6 4.9 C5.2 4.9 5.8 4.9 6.4 4.9 C8.1 5 9.4 5.4 11 6 C11 5 11 4 11 3 C10.2 3.1 10.2 3.1 9.4 3.1 C8.3 3.1 8.3 3.1 7.2 3.2 C6.5 3.2 5.8 3.3 5 3.3 C2.5 2.9 1.6 2 0 0 Z " fill="#3A320C" transform="translate(156,69)"/>
<path d="M0 0 C0.8 0 1.5 0 2.3 0 C12.7 0.2 23 1.8 33.2 3.4 C33.3 3.8 33.4 4.3 33.6 4.8 C34.1 6.6 34.1 6.6 36.2 7.4 C32.8 9.1 29.2 8.6 25.5 8.7 C22.8 8.8 22.8 8.8 20.1 8.8 C18.3 8.9 16.5 8.9 14.6 8.9 C12.7 9 10.9 9 9 9.1 C4.4 9.2 -0.2 9.3 -4.8 9.4 C-4.8 11 -4.8 12.7 -4.8 14.4 C-5.1 14.4 -5.5 14.4 -5.8 14.4 C-5.9 8.5 -5.9 8.5 -4.8 7.4 C-2.3 7.2 0.2 7.1 2.7 7.1 C4.3 7 5.8 7 7.4 6.9 C9 6.9 10.6 6.9 12.2 6.8 C13.9 6.8 15.5 6.7 17.2 6.7 C21.2 6.6 25.2 6.5 29.2 6.4 C27.9 5.7 26.5 5.1 25.2 4.4 C25.2 5 25.2 5.7 25.2 6.4 C15.1 6.8 5.2 5.5 -4.8 4.4 C-4.8 3.7 -4.8 3.1 -4.8 2.4 C-8 5.2 -9.5 7.4 -10.8 11.4 C-11.5 11.4 -12.1 11.4 -12.8 11.4 C-12.8 12 -12.8 12.6 -12.7 13.2 C-12.7 14.5 -12.7 14.5 -12.7 15.7 C-12.7 16.5 -12.6 17.3 -12.6 18.1 C-12.8 20.6 -13.4 21.4 -14.8 23.4 C-15.2 25.1 -15.2 25.1 -15.2 27 C-15.8 32.6 -17.6 37.7 -19.9 42.8 C-23 50.3 -25.8 61.1 -22.1 68.8 C-20.4 71.4 -18.2 73.4 -15.8 75.4 C-15.5 76 -15.2 76.7 -14.8 77.4 C-18.3 75.9 -20.3 74.1 -22.8 71.4 C-23.5 72.7 -24.1 74 -24.8 75.4 C-26.8 71.4 -28.8 67.5 -30.8 63.4 C-30.5 62.7 -30.2 62.1 -29.8 61.4 C-29.5 62.4 -29.2 63.4 -28.8 64.4 C-27.8 64.4 -26.8 64.4 -25.8 64.4 C-25.8 63.8 -25.8 63.1 -25.8 62.5 C-25.9 56.7 -25.6 51.1 -24.8 45.4 C-24.2 45.4 -23.5 45.4 -22.8 45.4 C-22.8 44.9 -22.9 44.5 -22.9 44 C-22.9 43.4 -23 42.8 -23 42.1 C-23 41.5 -23.1 40.9 -23.1 40.3 C-22.8 38.4 -22.8 38.4 -21.4 36.6 C-19.6 34.1 -19.1 32.2 -18.5 29.2 C-18.2 27.8 -18.2 27.8 -17.9 26.2 C-17.7 25.2 -17.5 24.2 -17.3 23.1 C-13.9 5.8 -13.9 5.8 -10.1 1.4 C-6.7 -0.1 -3.7 -0.1 0 0 Z " fill="#303B3A" transform="translate(58.8125,47.625)"/>
<path d="M0 0 C-0.7 0.3 -1.3 0.7 -2 1 C-2.6 2.5 -2.6 2.5 -3 4 C-4 4.2 -4 4.2 -4.9 4.4 C-5.8 4.6 -6.6 4.8 -7.4 4.9 C-8.3 5.1 -9.1 5.3 -9.9 5.5 C-12 5.8 -12 5.8 -13 7 C-14.7 7.1 -16.4 7.1 -18.1 7.1 C-19 7.1 -19.9 7 -20.8 7 C-21.6 7 -22.3 7 -23 7 C-23.4 7.7 -23.7 8.4 -24.1 9.2 C-25.8 12 -28 13.8 -30.6 15.8 C-32.2 17.1 -32.2 17.1 -33.7 19.2 C-35 21 -35 21 -36.4 21.4 C-43 23.9 -47.3 35 -50 41 C-51.6 41 -53.3 41 -55 41 C-56.1 36.2 -56.1 36.2 -55 34 C-54.3 34 -53.7 34 -53 34 C-53.1 32.9 -53.1 32.9 -53.2 31.7 C-53 28.4 -52.3 28.2 -50 26 C-49.2 24.7 -48.4 23.4 -47.6 22.1 C-45.5 18.5 -43.4 16.4 -40 14 C-39.7 13.3 -39.3 12.7 -39 12 C-38.3 12 -37.7 12 -37 12 C-36.9 11.5 -36.8 11.1 -36.7 10.6 C-35.8 8.5 -35.1 8 -33 7 C-30.3 6.9 -30.3 6.9 -28 7 C-28 6 -28 5 -28 4 C-26.4 4 -24.7 4 -23 4 C-22.7 3.3 -22.3 2.7 -22 2 C-22 2.7 -22 3.3 -22 4 C-21.2 3.7 -20.3 3.4 -19.5 3.1 C-12.9 0.9 -7.1 -0.7 0 0 Z " fill="#070A05" transform="translate(64,29)"/>
<path d="M0 0 C-0.7 0.2 -1.3 0.3 -2 0.5 C-9.8 2.3 -9.8 2.3 -16 7 C-16.8 10 -17 12.9 -17 16 C-16.3 16 -15.7 16 -15 16 C-14.7 16.7 -14.3 17.3 -14 18 C-12.5 18.6 -12.5 18.6 -11 19 C-10.7 17.7 -10.3 16.4 -10 15 C-7.7 17.8 -6.6 20.1 -5.5 23.5 C-4.8 25.7 -3.4 27.2 -2 29 C-2 29.7 -2 30.3 -2 31 C-0.7 30.7 0.6 30.3 2 30 C2.3 28.7 2.7 27.4 3 26 C2 25.7 1 25.3 0 25 C-0.5 22.5 -0.5 22.5 -1 20 C0.1 19.9 1.2 19.9 2.3 19.8 C3.2 19.8 3.2 19.8 4.2 19.7 C6.6 20.1 7.4 21.2 9 23 C8.8 32.8 8.8 32.8 4.6 36.2 C1.3 37.9 -1.4 38.3 -5 37 C-8.2 34.4 -10.6 31.3 -13 28 C-13.5 27.3 -14 26.7 -14.6 26 C-19 20.2 -20.2 14.3 -19 7 C-16.6 2.6 -13.1 0.8 -8.4 -0.4 C-5.2 -1 -3 -0.9 0 0 Z " fill="#313F3C" transform="translate(85,74)"/>
<path d="M0 0 C5 1 5 1 5.9 2.5 C6.9 4.9 7.1 6 7.2 8.5 C7.6 12.6 9.2 15.3 11.4 18.8 C14.9 24.5 17.4 30.2 18 37 C17 39.2 17 39.2 16 41 C16.3 42.7 16.3 42.7 17 44 C12.9 42.9 11.3 41.7 9.5 37.9 C9.2 37.3 9 36.8 8.8 36.2 C8.5 35.7 8.2 35.2 8 34.7 C6.3 31.1 5.5 27.9 5 24 C4.3 24 3.7 24 3 24 C3 21.4 3 18.7 3 16 C2 15.7 1 15.3 0 15 C0 10 0 5.1 0 0 Z " fill="#070A06" transform="translate(8,74)"/>
<path d="M0 0 C0.8 0 1.7 0 2.5 0 C3.1 0 3.8 0.1 4.4 0.1 C3.4 1.7 2.5 3.4 1.4 5.1 C2.9 5.1 2.9 5.1 4.4 5.2 C5.7 5.3 7 5.4 8.3 5.4 C9.3 5.5 9.3 5.5 10.3 5.5 C11.2 5.6 11.2 5.6 12.2 5.6 C13 5.7 13 5.7 13.9 5.7 C15.4 6.1 15.4 6.1 17.4 8.1 C19 8.3 19 8.3 20.7 8.3 C21.3 8.3 21.9 8.2 22.6 8.2 C23.2 8.2 23.9 8.2 24.6 8.2 C25.2 8.2 25.9 8.2 26.6 8.2 C28.2 8.1 29.8 8.1 31.4 8.1 C32.4 11 32.4 11 33.4 14.1 C34.4 14.4 35.4 14.7 36.4 15.1 C36.1 15.7 35.8 16.4 35.4 17.1 C32.4 15.1 29.4 13.1 26.4 11.1 C23.7 10.8 21 10.7 18.3 10.6 C16.7 10.6 15 10.6 13.4 10.5 C11.7 10.5 10 10.5 8.2 10.4 C6.5 10.4 4.8 10.4 3.1 10.3 C-1.1 10.2 -5.3 10.1 -9.6 10.1 C-9.6 10.7 -9.6 11.4 -9.6 12.1 C-10.2 12.1 -10.9 12.1 -11.6 12.1 C-18 12.5 -22.7 13.6 -28.6 16.3 C-30.6 17.1 -30.6 17.1 -32.6 16.1 C-31.2 14.1 -29.9 12.1 -28.6 10.1 C-27.9 10.1 -27.2 10.1 -26.5 10.1 C-25.6 10.2 -24.7 10.2 -23.8 10.2 C-22.9 10.2 -22 10.2 -21 10.3 C-18.4 10.1 -17.6 9.6 -15.6 8.1 C-13.7 7.6 -13.7 7.6 -11.9 7.4 C-11.3 7.4 -10.6 7.3 -10 7.2 C-9.5 7.2 -9 7.1 -8.6 7.1 C-8.2 6.4 -7.9 5.7 -7.6 5.1 C-14.5 4.6 -20.9 6.4 -27.6 8.1 C-27.2 7.1 -26.9 6.1 -26.6 5.1 C-26 5 -25.5 5 -25 4.9 C-24.2 4.8 -23.5 4.8 -22.8 4.7 C-21.8 4.6 -21.8 4.6 -20.7 4.5 C-18.5 4.2 -18.5 4.2 -16.6 3.1 C-14.3 1.9 -12.4 1.7 -9.9 1.5 C-6.1 1.2 -3.8 -0.1 0 0 Z " fill="#0A190F" transform="translate(69.5625,24.9375)"/>
<path d="M0 0 C1.4 0.5 1.4 0.5 3.2 1.5 C3.2 0.9 3.2 0.2 3.2 -0.5 C4.9 -0.5 6.5 -0.5 8.2 -0.5 C8.7 0.3 9.1 1.1 9.5 1.9 C11 4.4 12.7 5.9 15.2 7.5 C15.2 8.2 15.2 8.9 15.2 9.5 C16.7 9.4 18.1 9.3 19.6 9.1 C20.4 9 21.2 8.9 22 8.9 C23.9 8.6 25.5 8.2 27.2 7.5 C27.2 6.9 27.2 6.2 27.2 5.5 C30.5 5.5 33.8 5.5 37.2 5.5 C37.2 6.9 37.2 8.2 37.2 9.5 C37.7 9.4 38.2 9.2 38.7 9 C42.2 8.4 45.7 8.1 49.2 8.5 C50.2 9.5 50.2 9.5 51.2 10.5 C52.8 10.8 52.8 10.8 54.5 10.7 C55.1 10.7 55.7 10.7 56.4 10.7 C57 10.7 57.7 10.7 58.4 10.7 C59 10.7 59.7 10.6 60.4 10.6 C62 10.6 63.6 10.6 65.2 10.5 C66.2 11.9 67.2 13.2 68.2 14.5 C67.9 15.2 67.6 15.9 67.2 16.5 C66.6 16.2 65.9 15.9 65.2 15.5 C65.2 14.6 65.2 13.6 65.2 12.5 C64.3 12.6 63.3 12.8 62.3 12.9 C61 13 59.7 13.1 58.4 13.2 C57.8 13.3 57.1 13.4 56.5 13.5 C51.6 13.9 51.6 13.9 49.5 12.1 C49.1 11.6 48.7 11.1 48.2 10.5 C46.1 10.1 44.4 10.4 42.2 10.5 C41.9 10.9 41.6 11.2 41.2 11.5 C37.9 11.8 35.9 11.7 33.2 9.5 C33.2 8.9 33.2 8.2 33.2 7.5 C29.7 8.7 29.7 8.7 26.9 11.1 C24.1 13.6 21.3 13.2 17.8 13.1 C14.7 12.4 13.8 11.5 11.8 9.1 C7.7 4.3 3.3 4.5 -2.8 4.5 C-3.7 4.5 -4.5 4.5 -5.5 4.5 C-7.6 4.5 -9.7 4.5 -11.8 4.5 C-12.1 5.2 -12.4 5.9 -12.8 6.5 C-13.4 6.5 -14.1 6.5 -14.8 6.5 C-14.8 7.9 -14.8 9.2 -14.8 10.5 C-15.4 10.5 -16.1 10.5 -16.8 10.5 C-16.8 11.2 -16.8 11.9 -16.8 12.5 C-18.1 12.2 -19.4 11.9 -20.8 11.5 C-20.1 10.8 -19.5 10.1 -18.8 9.3 C-17.4 7.5 -16.8 6.6 -16.3 4.4 C-14.5 -2.3 -5.3 -1.4 0 0 Z " fill="#7FCD9E" transform="translate(52.76171875,142.45703125)"/>
<path d="M0 0 C0.7 0 1.3 0 2 0 C1.6 4.1 1 8.1 0 12.2 C-1 16.6 -1.4 21 -1.6 25.5 C-1.8 28.8 -2.4 31.1 -4 34 C-6 41.2 -6.5 48.6 -7 56 C-6.4 56.1 -5.8 56.3 -5.1 56.4 C-2.9 57 -1 57.9 1 59 C1 59.7 1 60.3 1 61 C1.4 61 1.8 60.9 2.2 60.9 C7 60.6 9.7 61.7 13.8 64 C16.3 65.1 18.5 65.6 21.1 66 C25.6 66.8 28.6 68.1 32 71 C28.7 72.1 26.9 71.9 23.7 70.8 C22.9 70.5 22.1 70.2 21.3 69.9 C19.3 69.1 17.4 68.3 15.4 67.4 C12.9 66.2 10.8 65.8 8 65.6 C3.7 65.2 0.6 63.4 -3 61 C-3 60.3 -3 59.7 -3 59 C-3.6 58.9 -4.2 58.7 -4.8 58.6 C-9.9 57.3 -9.9 57.3 -11 55 C-12 47.9 -9.8 40.8 -8 34 C-7.3 34 -6.7 34 -6 34 C-6 33.4 -6 32.8 -6.1 32.2 C-6.1 31.4 -6.1 30.6 -6.1 29.8 C-6.1 29 -6.2 28.3 -6.2 27.5 C-6 25.2 -5.5 23.7 -4.6 21.6 C-3.2 17.8 -2.6 13.7 -1.9 9.7 C-1.6 8.3 -1.6 8.3 -1.3 6.9 C-0.9 4.6 -0.4 2.3 0 0 Z " fill="#3F835D" transform="translate(54,57)"/>
<path d="M0 0 C0.8 0 1.6 0 2.4 0.1 C3 0.1 3.6 0.1 4.2 0.1 C4.6 0.8 4.9 1.4 5.2 2.1 C6.4 2.2 7.5 2.2 8.6 2.2 C9.6 2.3 9.6 2.3 10.5 2.3 C12.5 2.3 12.5 2.3 14.2 0.1 C16.4 0 16.4 0 18.2 0.1 C17.9 1.1 17.6 2.1 17.2 3.1 C15.6 3.5 13.9 3.8 12.2 4.1 C12.2 5.4 12.2 6.8 12.2 8.1 C15.6 6.5 18.9 4.8 22.2 3.1 C22.9 3.5 23.6 3.8 24.2 4.1 C22.9 5.1 21.5 6 20.1 7 C18.9 7.8 18.9 7.8 17.7 8.6 C11.8 12.2 7.2 12.4 0.4 12.2 C-0.4 12.2 -1.3 12.2 -2.2 12.2 C-4.4 12.2 -6.6 12.2 -8.8 12.1 C-8.8 8.8 -8.8 5.5 -8.8 2.1 C-5 0.3 -3.9 -0.1 0 0 Z " fill="#0D0F06" transform="translate(8.75,149.875)"/>
<path d="M0 0 C0.8 0 1.6 0 2.4 0 C27.1 0.5 27.1 0.5 36 7 C35.7 8.3 35.3 9.6 35 11 C20.8 11 6.6 11 -8 11 C-8 10.7 -8 10.3 -8 10 C3.9 9.7 15.8 9.3 28 9 C27.5 7.5 27.5 7.5 27 6 C16 4.3 5 2.7 -6.2 2.7 C-7.3 2.7 -7.3 2.7 -8.4 2.7 C-13.6 2.7 -13.6 2.7 -18 5 C-19 7.3 -19.5 9.7 -20.1 12.2 C-20.3 13.2 -20.3 13.2 -20.6 14.3 C-21.1 16.5 -21.5 18.8 -22 21 C-22.2 21.7 -22.3 22.5 -22.5 23.2 C-23.4 27.5 -24.2 31.7 -25 36 C-25.3 36 -25.7 36 -26 36 C-26 34.2 -26 32.4 -26.1 30.6 C-26.1 30.1 -26.1 29.6 -26.1 29.1 C-26.1 26.7 -26.1 25.2 -25 23 C-24.7 20.7 -24.6 18.5 -24.4 16.2 C-24 13.9 -23.3 12.9 -22 11 C-21.3 9.2 -21.3 9.2 -20.9 7.3 C-20.7 6.7 -20.5 6.1 -20.4 5.4 C-20.2 5 -20.1 4.5 -20 4 C-19.3 4 -18.7 4 -18 4 C-17.7 3 -17.3 2 -17 1 C-11.3 -0.3 -5.8 -0.1 0 0 Z " fill="#418C62" transform="translate(65,46)"/>
<path d="M0 0 C5.6 4 5.6 4 6 8 C6.7 8 7.3 8 8 8 C8.3 11.6 8.4 13.3 6.6 16.4 C3.4 19.1 -1.1 18.3 -5 18 C-5 19 -5 20 -5 21 C-5.5 21 -6.1 21.1 -6.6 21.1 C-11 21.5 -12.9 21.8 -16 25 C-19.3 25.3 -21 25.5 -23.9 24 C-26.3 22.8 -27.9 22.8 -30.6 22.9 C-34.7 23.1 -34.7 23.1 -36.3 22.5 C-38.5 21.9 -40.4 21.8 -42.7 21.7 C-43.6 21.6 -44.5 21.6 -45.4 21.6 C-46.3 21.5 -47.2 21.5 -48.2 21.4 C-49.6 21.4 -49.6 21.4 -51 21.3 C-53.4 21.2 -55.7 21.1 -58 21 C-58.3 20.3 -58.7 19.7 -59 19 C-55.2 18.9 -51.4 18.9 -47.6 18.9 C-46.5 18.9 -45.5 18.8 -44.4 18.8 C-43.3 18.8 -42.3 18.8 -41.2 18.8 C-39.8 18.8 -39.8 18.8 -38.3 18.8 C-36 19 -36 19 -34 21 C-31.9 21.2 -31.9 21.2 -30 21 C-29.7 20.3 -29.3 19.7 -29 19 C-27.3 19 -25.7 19 -24 19 C-23.5 20.5 -23.5 20.5 -23 22 C-21 22 -19 22 -17 22 C-16.9 21.4 -16.7 20.7 -16.6 20.1 C-16 18 -16 18 -15 17 C-12.7 16.4 -10.4 16 -8 15.5 C-6 15.2 -6 15.2 -5 14 C-3.8 13.8 -2.6 13.6 -1.4 13.4 C-0.8 13.4 -0.2 13.3 0.5 13.2 C1 13.1 1.5 13.1 2 13 C2.3 12.3 2.7 11.7 3 11 C3.7 11 4.3 11 5 11 C5 9.7 5 8.4 5 7 C4 6.7 3 6.3 2 6 C1.3 4 0.7 2 0 0 Z " fill="#9B7970" transform="translate(121,159)"/>
<path d="M0 0 C0 1.7 0 3.3 0 5 C0.7 5 1.3 5 2 5 C3.4 7.8 3.1 9.9 3 13 C3.7 13 4.3 13 5 13 C6.5 14.4 6.5 14.4 8.1 16.2 C8.7 16.9 9.2 17.5 9.8 18.1 C11.2 20.3 11.3 21.4 11 24 C11.7 24 12.3 24 13 24 C13.3 26.6 13.7 29.3 14 32 C14.7 32.3 15.3 32.7 16 33 C15.7 34.7 15.3 36.3 15 38 C14 38 13 38 12 38 C12 36.7 12 35.4 12 34 C11.5 33.9 11.1 33.8 10.6 33.7 C8.6 32.8 8.4 32.2 7.7 30.2 C6.1 26 4 22.1 2 18.1 C0 14.2 0 14.2 0 12 C-1.3 12 -2.6 12 -4 12 C-7 8.9 -7.3 6.6 -7.2 2.5 C-6.7 -1.3 -3 -0.1 0 0 Z " fill="#5A4D38" transform="translate(131,148)"/>
<path d="M0 0 C0.6 0.3 1.2 0.6 1.9 0.9 C6.8 3.5 6.8 3.5 8 7 C5.7 6.3 3.4 5.7 1 5 C1 4.3 1 3.7 1 3 C-0.3 2.7 -1.6 2.3 -3 2 C-3 1.3 -3 0.7 -3 0 C-3.6 0.3 -4.2 0.7 -4.8 1 C-7 2 -7 2 -10 2 C-9.9 7.6 -9.7 13.3 -9.6 18.9 C-9.5 20.5 -9.5 22.1 -9.4 23.7 C-9.4 25.3 -9.4 26.8 -9.3 28.4 C-9.3 29.8 -9.2 31.2 -9.2 32.7 C-9.2 35.9 -9.2 35.9 -8 38 C-7.9 39.7 -7.9 39.7 -7.9 41.6 C-7.9 42.3 -8 42.9 -8 43.5 C-8 44 -8 44.5 -8 45 C-6.7 45 -5.4 45 -4 45 C-4 44 -4 43 -4 42 C-2.3 42 -0.7 42 1 42 C0 43.3 -1 44.6 -2 46 C-2.7 46 -3.3 46 -4 46 C-4.7 47.3 -5.3 48.6 -6 50 C-6.7 50 -7.3 50 -8 50 C-12.8 34.2 -14.5 18.4 -14 2 C-8.8 -1.2 -5.5 -3.1 0 0 Z " fill="#E8BE23" transform="translate(135,68)"/>
<path d="M0 0 C1.2 0 1.2 0 2.5 0.1 C3.4 0.1 3.4 0.1 4.4 0.1 C3.7 2.1 3.1 4.1 2.4 6.1 C1.3 6.2 0.3 6.3 -0.8 6.4 C-4.4 7 -7.6 8 -10.6 10.1 C-11 10.8 -11.3 11.4 -11.6 12.1 C-12.3 12.1 -12.9 12.1 -13.6 12.1 C-14 13.1 -14.3 14.1 -14.6 15.1 C-15.3 15.1 -15.9 15.1 -16.6 15.1 C-16.6 15.8 -16.6 16.4 -16.6 17.1 C-18.3 17.1 -19.9 17.1 -21.6 17.1 C-21.4 7.1 -21.4 7.1 -18.6 4.6 C-15.6 2.6 -12.1 2.6 -8.6 2.4 C-5 1.9 -4.1 -0.1 0 0 Z " fill="#F4B917" transform="translate(155.625,110.875)"/>
<path d="M0 0 C1 0 1.9 0 2.9 0 C5.3 0.1 7.6 0.1 9.9 0.1 C12.1 5.5 12.2 10.2 12.1 15.9 C12.1 17.8 12.1 19.6 12.1 21.6 C12.1 23.5 12.1 25.5 12.1 27.5 C12.1 29.5 12 31.5 12 33.5 C12 38.4 12 43.2 11.9 48.1 C11.3 48.1 10.6 48.1 9.9 48.1 C9.6 49.4 9.3 50.8 8.9 52.1 C3 52.5 -1.5 51.2 -7.1 49.1 C-7.1 48.8 -7.1 48.5 -7.1 48.1 C-5.9 48.1 -4.7 48 -3.6 48 C-2.9 48 -2.3 48 -1.6 47.9 C2 48.2 5.4 49.2 8.9 50.1 C9 44 9 37.9 9 31.8 C9 30 9 28.3 9 26.5 C9.1 14.3 9.1 14.3 7.9 2.1 C2.4 2 -2.9 2 -8.3 2.9 C-11.9 3.4 -15.5 3.2 -19.1 3.1 C-19.1 4.8 -19.1 6.4 -19.1 8.1 C-19.7 7.8 -20.4 7.5 -21.1 7.1 C-20.7 5.5 -20.4 3.8 -20.1 2.1 C-13.3 0.3 -7 -0.1 0 0 Z " fill="#3E7D5A" transform="translate(93.0625,80.875)"/>
<path d="M0 0 C10.6 2.7 10.6 2.7 14.7 4.6 C18.3 6.3 22 6.7 26 7 C26.3 8 26.7 9 27 10 C28.2 9.9 28.2 9.9 29.4 9.8 C32.5 9.7 34.5 10.6 37.3 12 C42.2 14.1 46.5 14.4 51.8 14.4 C52.9 14.4 52.9 14.4 54 14.4 C58.1 14.3 61.3 13.8 65 12 C63.6 15.5 62.4 16.6 59 18 C51.7 19 44.1 17.2 37 16 C37 15.3 37 14.7 37 14 C36.3 14 35.5 14.1 34.8 14.1 C33.8 14.1 32.8 14.2 31.8 14.2 C30.4 14.2 30.4 14.2 28.9 14.3 C26.1 14 24.6 13.4 22.3 11.8 C19.9 10.3 17.1 9.4 14.4 8.4 C13.6 8.1 13.6 8.1 12.7 7.7 C9.8 6.6 7 5.7 4 5 C4 4.3 4 3.7 4 3 C2.7 2.7 1.4 2.3 0 2 C0 1.3 0 0.7 0 0 Z " fill="#3A6B52" transform="translate(45,125)"/>
<path d="M0 0 C1.5 -0 3 -0 4.5 -0 C6 -0 7.4 -0.1 8.9 -0.1 C10.2 -0.1 11.5 -0.1 12.9 -0.1 C17 0.3 20 1.5 23.6 3.3 C24.9 20.3 24.7 37.3 24.6 54.3 C24.3 54.3 24 54.3 23.6 54.3 C23 38.8 22.3 23.3 21.6 7.3 C14.9 2.6 14.9 2.6 8.1 1.8 C7.2 1.8 6.2 1.8 5.2 1.8 C4.2 1.8 3.2 1.8 2.2 1.9 C0.7 1.9 0.7 1.9 -0.8 1.9 C-12.6 1.9 -12.6 1.9 -22.6 7.3 C-24.6 12.2 -23.7 18.1 -23.4 23.3 C-26.5 19.9 -27.9 18 -27.8 13.2 C-27.8 12.3 -27.8 11.5 -27.8 10.6 C-27.3 7.9 -26.6 6.9 -24.4 5.3 C-23.4 5.3 -22.4 5.3 -21.4 5.3 C-21.4 4.3 -21.4 3.3 -21.4 2.3 C-14.7 -0.9 -7.3 -0 0 0 Z " fill="#3F815C" transform="translate(90.375,71.6875)"/>
<path d="M0 0 C0.7 0.3 1.3 0.7 2 1 C1.5 1.6 1.1 2.1 0.6 2.7 C-6.9 12 -9.6 19.1 -10 31 C-9.3 31 -8.7 31 -8 31 C-7.8 31.7 -7.6 32.4 -7.4 33.1 C-7.1 34.4 -7.1 34.4 -6.7 35.8 C-6.4 36.7 -6.2 37.6 -5.9 38.5 C-5.2 41 -5.2 41 -3.4 42.6 C-1.6 44.4 -1.7 45.2 -1.8 47.7 C-1.8 48.3 -1.9 48.9 -1.9 49.6 C-1.9 50 -2 50.5 -2 51 C-0.5 51.5 -0.5 51.5 1 52 C1.3 54.3 1.7 56.6 2 59 C1.3 58.7 0.7 58.3 0 58 C0 57 0 56 0 55 C-0.7 55 -1.3 55 -2 55 C-2.3 54.2 -2.6 53.4 -3 52.6 C-5.5 45.9 -5.5 45.9 -9.2 39.9 C-11.6 36.7 -12 33.1 -12.6 29.2 C-12.9 27 -12.9 27 -14 25 C-16 24.3 -16 24.3 -18 24 C-18.3 25 -18.7 26 -19 27 C-20.8 25.2 -20.1 22.4 -20 20 C-16.9 19 -15.1 19 -12 20 C-11.9 19.3 -11.8 18.6 -11.7 17.8 C-10.8 14.4 -9.3 12.2 -7.1 9.4 C-6.8 9 -6.4 8.5 -6.1 8 C-5 6.7 -4 5.3 -3 4 C-2 2.7 -1 1.3 0 0 Z " fill="#1B462C" transform="translate(26,50)"/>
<path d="M0 0 C-6.3 3.2 -12.5 6.1 -19.6 6.7 C-21.7 7.1 -22.7 8.3 -24 10 C-21.6 9.5 -19.2 9 -16.7 8.5 C-10.1 6.9 -3.8 6.8 3 7 C2.7 8 2.3 9 2 10 C0.7 10 -0.6 10 -2 10 C-2.3 11 -2.7 12 -3 13 C-3.3 12.3 -3.7 11.7 -4 11 C-3.7 10.3 -3.3 9.7 -3 9 C-4.5 9.1 -5.9 9.2 -7.4 9.4 C-8.2 9.4 -9 9.5 -9.8 9.6 C-12.2 9.8 -12.2 9.8 -14 12 C-16.2 12.3 -18.4 12.4 -20.7 12.6 C-23.6 13.1 -24.9 13.9 -27 16 C-27.9 18.5 -27.9 18.5 -28.2 21.2 C-28.4 22.1 -28.5 23 -28.7 23.9 C-28.8 24.6 -28.9 25.3 -29 26 C-31.4 22.9 -31.2 20.9 -31 17 C-32 17.3 -33 17.7 -34 18 C-33.5 13.7 -31 11.8 -28 9 C-27.6 8.5 -27.1 8 -26.7 7.4 C-24.5 5.5 -22.6 5.2 -19.8 4.5 C-16.4 3.7 -13.3 2.8 -10.2 1.3 C-6.8 -0.3 -3.7 -0.3 0 0 Z " fill="#664E0B" transform="translate(163,102)"/>
<path d="M0 0 C0.7 0 1.3 0 2 0 C2.3 3 2.7 5.9 3 9 C4 9.3 5 9.7 6 10 C5.3 10 4.7 10 4 10 C3.8 11.2 3.8 11.2 3.7 12.4 C3.1 16.1 1.9 19.4 0.6 22.9 C-0 25 -0.1 26.8 0 29 C-2.3 28.7 -4.6 28.3 -7 28 C-7.1 23.1 -7.1 23.1 -6 22 C-5.8 20.5 -5.6 19 -5.4 17.4 C-5.4 16.6 -5.3 15.8 -5.2 14.9 C-5.1 14.3 -5.1 13.7 -5 13 C-4.3 13 -3.7 13 -3 13 C-3 12.3 -2.9 11.6 -2.9 10.9 C-2.8 10 -2.7 9.1 -2.6 8.2 C-2.6 7.3 -2.5 6.4 -2.4 5.5 C-2 3.1 -1.5 1.9 0 0 Z " fill="#090C08" transform="translate(130,119)"/>
<path d="M0 0 C0.7 0 1.3 0 2 0 C2 0.7 2 1.3 2 2 C2.7 2 3.3 2 4 1.9 C13.4 1.8 22.6 2.8 32 4 C32 3.3 32 2.7 32 2 C34.9 2.6 35.9 2.9 38 5 C26.1 5.3 14.2 5.7 2 6 C1.3 11.3 0.7 16.6 0 22 C-1.7 30.7 -1.7 30.7 -3 32 C-3.2 33.5 -3.4 35 -3.6 36.6 C-3.6 37.4 -3.7 38.2 -3.8 39.1 C-3.9 39.7 -3.9 40.3 -4 41 C-4.7 41 -5.3 41 -6 41 C-6.3 41.7 -6.7 42.3 -7 43 C-6.7 40.4 -6.4 37.7 -6.1 35.1 C-6 34.4 -6 33.6 -5.9 32.9 C-5.8 31.8 -5.8 31.8 -5.6 30.7 C-5.6 30 -5.5 29.4 -5.4 28.7 C-5 27 -5 27 -3 25 C-2.7 23.6 -2.7 23.6 -2.6 22 C-2.6 21.4 -2.6 20.8 -2.5 20.3 C-2.5 19.7 -2.5 19.1 -2.4 18.4 C-2.1 12.1 -2.1 12.1 -1 11 C-0.8 9.8 -0.6 8.6 -0.4 7.4 C-0.4 6.8 -0.3 6.2 -0.2 5.5 C-0.1 5 -0.1 4.5 0 4 C-0.7 3.7 -1.3 3.3 -2 3 C-1.3 2 -0.7 1 0 0 Z " fill="#2F3638" transform="translate(52,50)"/>
<path d="M0 0 C1 0 2 0 3 0 C3 1 3 2 3 3 C3.6 2.5 3.6 2.5 4.3 2 C7.6 0.1 12 0.4 15.6 1.5 C17 2 17 2 19 3 C19 3.7 19 4.3 19 5 C20 5 21 5 22 5 C22 8.3 22 11.6 22 15 C21 15 20 15 19 15 C18.7 16 18.3 17 18 18 C17.3 18 16.7 18 16 18 C16 18.7 16 19.3 16 20 C14.7 19.7 13.4 19.3 12 19 C12.6 18.5 13.3 18.1 13.9 17.6 C17.1 14.5 16.8 10.2 17 6 C14.8 3.8 14.3 3.7 11.4 3.4 C10.7 3.3 10.1 3.2 9.5 3.1 C9 3.1 8.5 3.1 8 3 C9.1 6.7 9.1 6.7 12 9 C11.7 10.7 11.3 12.3 11 14 C9.7 14 8.4 14 7 14 C3.4 9.5 1.1 5.6 0 0 Z " fill="#449D6A" transform="translate(76,91)"/>
<path d="M0 0 C3.8 2.9 3.8 2.9 4.3 5.7 C4.4 7.8 4.3 9.7 4.2 11.8 C4.2 12.4 4.2 13.1 4.2 13.9 C4.1 15.6 4.1 17.3 4 19 C3.3 19 2.7 19 2 19 C1.7 20.7 1.3 22.3 1 24 C-0.6 24.8 -2.2 25.7 -3.9 26.5 C-4.3 26.7 -4.8 27 -5.3 27.2 C-8.8 29 -8.8 29 -11 29 C-11 27.7 -11 26.4 -11 25 C-10.2 24.8 -9.4 24.5 -8.6 24.3 C-5.4 22.7 -5 21.4 -4 18 C-3.3 18 -2.7 18 -2 18 C-2 17.5 -1.9 17 -1.9 16.5 C-1.8 14.2 -1.7 11.9 -1.6 9.6 C-1.5 8.8 -1.5 8 -1.4 7.1 C-1.4 6.4 -1.4 5.6 -1.3 4.8 C-1.3 4.1 -1.2 3.4 -1.2 2.7 C-1 1 -1 1 0 0 Z " fill="#080A05" transform="translate(32,129)"/>
<path d="M0 0 C1 3.1 1 4.9 0 8 C-0.7 8 -1.3 8 -2 8 C-2 8.6 -2 9.2 -1.9 9.8 C-1.8 14.7 -2.1 18.4 -4 23 C-2.3 23 -0.7 23 1 23 C0 23.7 -1 24.3 -2 25 C-2.2 29.2 -2.3 32.3 0 36 C1.3 36 2.6 36 4 36 C4.3 37.3 4.7 38.6 5 40 C4 39.7 3 39.3 2 39 C1.7 39.7 1.3 40.3 1 41 C1.7 41 2.3 41 3 41 C2.7 42 2.3 43 2 44 C-8.4 33.9 -8.4 33.9 -8.7 28.6 C-8.3 25 -6.8 21.6 -5.5 18.2 C-4 14.4 -3.6 11 -3.3 6.9 C-2.9 4.1 -1.7 2.3 0 0 Z " fill="#163422" transform="translate(127,124)"/>
<path d="M0 0 C-2.3 1.8 -4.2 3.2 -7 4 C-7.4 12.9 -6.7 21.4 -5.6 30.2 C-5.5 31.3 -5.4 32.3 -5.2 33.3 C-4.4 39.6 -3.3 45.8 -2 52 C-1.3 52 -0.7 52 0 52 C-1.2 54.3 -1.6 54.4 -4 55 C-4 53.7 -4 52.4 -4 51 C-4.7 51 -5.3 51 -6 51 C-6.1 49.7 -6.1 49.7 -6.1 48.4 C-6.6 40.5 -6.6 40.5 -8.5 32.9 C-9.3 29.7 -9.5 26.4 -9.7 23.1 C-9.8 20.8 -9.9 19.1 -11 17 C-11.1 15.6 -11.1 15.6 -11.1 14 C-11.1 13.4 -11.1 12.8 -11.1 12.2 C-11.1 11.6 -11.1 11 -11.1 10.4 C-11.1 9.8 -11.1 9.2 -11 8.5 C-11 4 -11 4 -8.7 2 C-5.6 -0.5 -3.9 -0.4 0 0 Z " fill="#66C26E" transform="translate(129,66)"/>
<path d="M0 0 C6 0 9.9 0.7 14 5.4 C15.4 7.6 15.5 9.4 15 12 C14.4 12.4 13.7 12.9 13.1 13.3 C11.1 14.9 10.5 15.5 10 18 C9.3 18 8.7 18 8 18 C8 17.5 8 16.9 8 16.4 C7.6 11.3 7.6 11.3 4.4 7.5 C3.6 7 2.8 6.5 2 6 C2 5.3 2 4.7 2 4 C1 4 0 4 -1 4 C-0.7 2.7 -0.3 1.4 0 0 Z " fill="#10110A" transform="translate(176,73)"/>
<path d="M0 0 C5.9 -0.1 11.9 -0.1 17.8 -0.2 C19.5 -0.2 21.2 -0.2 22.9 -0.3 C24.6 -0.3 26.2 -0.3 27.8 -0.3 C29.3 -0.3 30.8 -0.3 32.4 -0.3 C36 0 36 0 38 1.5 C38.5 2.3 38.5 2.3 39 3 C37 3 35 3 33 3 C33 2.3 33 1.7 33 1 C29.5 1.1 26.1 1.3 22.6 1.4 C21.1 1.5 21.1 1.5 19.6 1.6 C18.2 1.6 18.2 1.6 16.8 1.7 C15.9 1.7 15.1 1.8 14.2 1.8 C12 1.9 12 1.9 10 3 C8.6 3.1 7.3 3.1 5.9 3.1 C-12 3.2 -12 3.2 -26.5 12.6 C-26.9 13.2 -27.4 13.8 -27.8 14.4 C-29.5 16.7 -31.4 17.7 -34 19 C-30 10 -22.7 5.4 -13.5 2.5 C-9 1.6 -4.5 1.8 0 2 C0 1.3 0 0.7 0 0 Z " fill="#46B172" transform="translate(60,35)"/>
<path d="M0 0 C0.7 0 1.3 0 2 0 C1.6 4.1 1 8.1 0 12.2 C-1 16.6 -1.4 21 -1.6 25.5 C-1.8 28.8 -2.4 31.1 -4 34 C-6 41.2 -6.5 48.6 -7 56 C-7.7 56 -8.3 56 -9 56 C-9.4 48.5 -8.8 41.5 -7.6 34.1 C-7.5 33.2 -7.4 32.4 -7.2 31.6 C-6.6 27.4 -5.6 23.9 -4 20 C-3.2 16.6 -2.5 13.1 -1.9 9.7 C-1.7 8.8 -1.5 7.8 -1.3 6.9 C-0.9 4.6 -0.4 2.3 0 0 Z " fill="#45A26C" transform="translate(54,57)"/>
<path d="M0 0 C1.3 3.6 0.7 5.7 -0.4 9.2 C-2.5 16.6 -5 27.9 -0.5 34.7 C1.3 36.7 3 38.3 5 40 C5.3 40.7 5.7 41.3 6 42 C2.6 40.5 0.5 38.7 -2 36 C-2.7 37.3 -3.3 38.6 -4 40 C-6 36 -8 32.1 -10 28 C-9.7 27.3 -9.3 26.7 -9 26 C-8.7 27 -8.3 28 -8 29 C-7 29 -6 29 -5 29 C-5 28.4 -5 27.8 -5 27.1 C-5.1 21.3 -4.8 15.7 -4 10 C-3.3 10 -2.7 10 -2 10 C-2 9.5 -2 9.1 -2.1 8.6 C-2.2 2.4 -2.2 2.4 0 0 Z " fill="#3B8059" transform="translate(38,83)"/>
<path d="M0 0 C1.1 0 1.1 0 2.3 0 C3.1 0 3.9 0.1 4.7 0.1 C5.5 0.1 6.3 0.1 7.1 0.1 C9.1 0.1 11.1 0.2 13.1 0.2 C12.1 0.9 11.1 1.5 10.1 2.2 C11.6 3.7 13.1 3.5 15.1 3.8 C16.2 3.9 16.2 3.9 17.4 4 C17.9 4.1 18.5 4.1 19.1 4.2 C19.1 5.2 19.1 6.2 19.1 7.2 C16.2 7.3 13.4 7.4 10.5 7.5 C9.3 7.6 9.3 7.6 8.1 7.6 C2 7.8 -1.4 6.3 -5.9 2.2 C-3.6 -0.2 -3.2 -0 0 0 Z " fill="#060804" transform="translate(147.9140625,67.8046875)"/>
<path d="M0 0 C1 0 2 0 3 0 C2.7 1 2.3 2 2 3 C1 3 0 3 -1 3 C0.6 6.3 1.5 8.1 5.1 9.2 C6.1 9.5 7 9.7 8 10 C8.3 10.3 8.7 10.7 9 11 C10.3 11.2 11.7 11.4 13.1 11.6 C14.2 11.7 14.2 11.7 15.3 11.8 C15.9 11.9 16.4 11.9 17 12 C17 12.7 17 13.3 17 14 C20.3 14.3 23.6 14.7 27 15 C27 15.7 27 16.3 27 17 C28.3 17 29.6 17 31 17 C31.5 20 31.5 20 32 23 C31.3 23 30.7 23 30 23 C29.5 21 29.5 21 29 19 C25.7 18.7 22.4 18.3 19 18 C18.7 17.3 18.3 16.7 18 16 C17.3 16 16.6 15.9 15.9 15.9 C15 15.8 14.1 15.8 13.2 15.7 C11.8 15.6 11.8 15.6 10.5 15.5 C7.6 14.9 6.9 14.2 5 12 C3.4 11 1.7 10 0 9 C-1 8.3 -2 7.7 -3 7 C-2.7 5.3 -2.3 3.7 -2 2 C-1.3 2 -0.7 2 0 2 C0 1.3 0 0.7 0 0 Z " fill="#E8E1DF" transform="translate(32,155)"/>
<path d="M0 0 C1.5 0.1 1.5 0.1 3.2 0.1 C3.8 0.1 4.4 0.1 5.1 0.1 C5.7 0.1 6.4 0.1 7.1 0.1 C8.1 0.1 8.1 0.1 9.1 0 C10.7 0 12.4 0 14 0 C14.7 2 15.3 4 16 6 C17 6.3 18 6.7 19 7 C18.7 7.7 18.3 8.3 18 9 C13.5 6 13.5 6 9 3 C6.3 2.8 3.6 2.6 0.8 2.6 C-1.6 2.5 -1.6 2.5 -4.1 2.5 C-5.8 2.4 -7.4 2.4 -9.2 2.4 C-10.9 2.3 -12.6 2.3 -14.3 2.3 C-18.6 2.2 -22.8 2.1 -27 2 C-27 2.7 -27 3.3 -27 4 C-28.6 4 -30.3 4 -32 4 C-28.4 0.7 -25.1 0.3 -20.4 -0.2 C-19.7 -0.3 -19 -0.3 -18.3 -0.4 C-2.1 -2.1 -2.1 -2.1 0 0 Z " fill="#235737" transform="translate(87,33)"/>
<path d="M0 0 C2.9 1.6 3.9 2.5 4.6 5.8 C4.7 7.1 4.7 8.3 4.8 9.6 C4.8 10.3 4.8 11 4.8 11.7 C4.9 14.5 5 17.2 5 20 C5 21.3 5.1 22.7 5.1 24 C5.2 28.6 5.3 33.1 5.3 37.6 C5.4 39.9 5.4 39.9 5.4 42.2 C5.4 43.6 5.4 45 5.4 46.5 C5.4 47.8 5.5 49 5.5 50.4 C4.9 54.7 3.4 57.4 1 61 C0 58 0 58 2 53 C2.2 49.3 2.3 45.6 2.3 41.9 C2.3 39.8 2.3 37.6 2.3 35.3 C2.3 33.1 2.3 30.8 2.2 28.4 C2.3 26.2 2.3 23.9 2.3 21.5 C2.3 18.3 2.3 18.3 2.3 14.9 C2.3 11.9 2.3 11.9 2.3 8.9 C2.3 4 2.3 4 0 0 Z " fill="#365A49" transform="translate(109,76)"/>
<path d="M0 0 C0 5.3 0 10.6 0 16 C-2.9 17 -3.8 17 -6.7 16.6 C-7.3 16.5 -7.9 16.4 -8.6 16.3 C-9 16.2 -9.5 16.1 -10 16 C-9.6 11.7 -5.2 0 0 0 Z " fill="#F3B917" transform="translate(192,85)"/>
<path d="M0 0 C3.3 0 6.6 0 10 0 C10 1.3 10 2.6 10 4 C10.5 3.8 11 3.7 11.5 3.5 C15 2.8 18.5 2.6 22 3 C22.7 3.7 23.3 4.3 24 5 C25.5 5.3 25.5 5.3 27.3 5.2 C27.9 5.2 28.5 5.2 29.2 5.2 C29.8 5.2 30.5 5.1 31.1 5.1 C31.8 5.1 32.4 5.1 33.1 5.1 C34.7 5.1 36.4 5 38 5 C39 6.3 40 7.6 41 9 C40.7 9.7 40.3 10.3 40 11 C39.3 10.7 38.7 10.3 38 10 C38 9 38 8 38 7 C37 7.1 36 7.2 35 7.3 C33.8 7.4 32.5 7.6 31.2 7.7 C30.5 7.8 29.9 7.8 29.2 7.9 C24.4 8.3 24.4 8.3 22.2 6.5 C21.8 6 21.4 5.5 21 5 C18.9 4.6 17.2 4.8 15 5 C14.7 5.3 14.3 5.7 14 6 C10.6 6.3 8.6 6.2 6 4 C6 3.3 6 2.7 6 2 C2.4 3.2 2.4 3.2 -0.3 5.6 C-2.6 7.6 -4.2 7.3 -7.2 7.2 C-8.5 7.1 -8.5 7.1 -9.9 7.1 C-10.6 7.1 -11.3 7 -12 7 C-12 6.7 -12 6.3 -12 6 C-7.5 5.5 -7.5 5.5 -3 5 C-2 3.3 -1 1.7 0 0 Z " fill="#9FD9B6" transform="translate(80,148)"/>
<path d="M0 0 C4.8 0.8 4.8 0.8 7 3 C7.2 4.9 7.2 4.9 7.1 7.1 C7.1 7.8 7.1 8.6 7.1 9.3 C7 10.2 7 10.2 7 11 C7.7 11 8.3 11 9 11 C9.1 10.4 9.2 9.8 9.2 9.1 C10.2 6.4 11.4 6 14 5 C13.2 7.9 13.2 7.9 11 9 C8.4 12.7 6.5 16.8 5 21 C7.6 21 10.3 21 13 21 C13 22 13 23 13 24 C9.2 24.1 5.7 24.2 2 23 C2.5 18 3.6 15.7 7 12 C3 14.3 -1 16.6 -5 19 C-5.7 18.7 -6.3 18.3 -7 18 C-6.3 17.5 -5.6 17 -4.8 16.5 C-3.9 15.9 -3 15.3 -2.1 14.6 C-1.4 14.1 -1.4 14.1 -0.6 13.7 C2.1 11.8 2.1 11.8 4 9 C4.7 9 5.3 9 6 9 C4.8 4.6 4.1 2.4 0 0 Z " fill="#75611E" transform="translate(177,80)"/>
<path d="M0 0 C0.8 0 1.6 0 2.4 0.1 C3 0.1 3.6 0.1 4.2 0.1 C4.6 2.1 4.9 4.1 5.2 6.1 C2.7 8.7 1.7 8.3 -1.9 8.2 C-3.2 8.2 -3.2 8.2 -4.6 8.2 C-5.3 8.2 -6 8.1 -6.8 8.1 C-6.8 7.5 -6.8 6.8 -6.8 6.1 C-7.4 6.1 -8.1 6.1 -8.8 6.1 C-8.8 4.8 -8.8 3.5 -8.8 2.1 C-5.7 0.3 -3.5 -0.1 0 0 Z " fill="#8F765B" transform="translate(8.75,149.875)"/>
<path d="M0 0 C2.8 4.1 2.3 7.2 2.3 12.1 C2.3 14.9 2.3 14.9 2.3 17.6 C2.3 19.6 2.3 21.5 2.2 23.4 C2.3 25.3 2.3 27.3 2.3 29.2 C2.3 31 2.3 32.9 2.3 34.7 C2.3 36.4 2.3 38.1 2.3 39.8 C2 44 2 44 0 48 C-5.9 48.4 -10.5 47.1 -16 45 C-16 44.7 -16 44.3 -16 44 C-14.8 43.9 -13.7 43.9 -12.5 43.9 C-11.9 43.9 -11.2 43.8 -10.5 43.8 C-7 44.1 -3.5 45.1 0 46 C0 30.8 0 15.6 0 0 Z " fill="#418F63" transform="translate(102,85)"/>
<path d="M0 0 C3 2 3 2 6 4 C6.7 3 7.3 2 8 1 C8 2.3 8 3.6 8 5 C8.7 5 9.3 5 10 5 C10.3 7.6 10.7 10.3 11 13 C11.7 13.3 12.3 13.7 13 14 C12.7 15.7 12.3 17.3 12 19 C11 19 10 19 9 19 C9 17.7 9 16.4 9 15 C8.5 14.9 8.1 14.8 7.6 14.7 C5.5 13.8 5.3 12.9 4.5 10.8 C3.6 8.4 2.7 6.3 1.3 4.2 C0 2 0 2 0 0 Z " fill="#3C3023" transform="translate(134,167)"/>
<path d="M0 0 C1.8 2.3 2.3 4 2.6 6.9 C2.7 8.1 2.7 8.1 2.8 9.2 C2.9 10 3 10.8 3.1 11.6 C3.2 13.1 3.4 14.6 3.5 16.2 C3.6 16.9 3.7 17.6 3.7 18.3 C3.9 20.1 3.9 20.1 5 22 C5.1 23.7 5.1 23.7 5.1 25.6 C5.1 26.3 5 26.9 5 27.5 C5 28 5 28.5 5 29 C6.3 29 7.6 29 9 29 C9 28 9 27 9 26 C10.7 26 12.3 26 14 26 C13 27.3 12 28.6 11 30 C10.3 30 9.7 30 9 30 C8.3 31.3 7.7 32.6 7 34 C6.3 34 5.7 34 5 34 C1.7 22.4 -0.2 12.1 0 0 Z " fill="#C6BE36" transform="translate(122,84)"/>
<path d="M0 0 C6.2 1.6 12.2 3.2 18 6 C18 6.7 18 7.3 18 8 C19.1 8.2 19.1 8.2 20.2 8.4 C22.9 9 25.5 9.7 28.2 10.4 C29 10.7 29.9 10.9 30.8 11.2 C33 12 33 12 35 14 C33.6 14.1 32.2 14.1 30.8 14.2 C30 14.2 29.3 14.3 28.5 14.3 C25.9 14 24.5 13.2 22.4 11.8 C19.9 10.3 17.2 9.4 14.4 8.4 C13.6 8.1 13.6 8.1 12.7 7.7 C9.8 6.6 7 5.7 4 5 C4 4.3 4 3.7 4 3 C2.7 2.7 1.4 2.3 0 2 C0 1.3 0 0.7 0 0 Z " fill="#46A66E" transform="translate(45,125)"/>
<path d="M0 0 C6.3 0.7 12.5 1.3 19 2 C19.5 3.5 19.5 3.5 20 5 C20.7 5.3 21.3 5.7 22 6 C18.6 7.7 15 7.2 11.3 7.3 C9.5 7.4 7.8 7.4 6 7.4 C4.1 7.5 2.3 7.5 0.4 7.6 C-1.5 7.6 -3.3 7.6 -5.2 7.7 C-9.8 7.8 -14.4 7.9 -19 8 C-19 9.6 -19 11.3 -19 13 C-19.3 13 -19.7 13 -20 13 C-20.1 7.1 -20.1 7.1 -19 6 C-16.5 5.8 -14 5.7 -11.5 5.7 C-9.9 5.6 -8.4 5.6 -6.8 5.6 C-5.2 5.5 -3.6 5.5 -1.9 5.4 C-0.3 5.4 1.3 5.4 3 5.3 C7 5.2 11 5.1 15 5 C11.4 3.8 7.9 2.7 4.1 1.9 C3 1.6 3 1.6 1.8 1.4 C1.2 1.2 0.6 1.1 0 1 C0 0.7 0 0.3 0 0 Z " fill="#355647" transform="translate(73,49)"/>
<path d="M0 0 C0.8 0 1.7 0 2.5 0 C3.1 0 3.8 0.1 4.4 0.1 C3.9 0.7 3.4 1.3 2.9 1.9 C1.2 4 1.2 4 1.4 7.1 C0.8 7.1 0.1 7.1 -0.6 7.1 C-0.6 6.4 -0.6 5.7 -0.6 5.1 C-10.1 4.7 -18.4 5.5 -27.6 8.1 C-27.2 7.1 -26.9 6.1 -26.6 5.1 C-26 5 -25.5 5 -25 4.9 C-24.2 4.8 -23.5 4.8 -22.8 4.7 C-21.8 4.6 -21.8 4.6 -20.7 4.5 C-18.5 4.2 -18.5 4.2 -16.6 3.1 C-14.3 1.9 -12.4 1.7 -9.9 1.5 C-6.1 1.2 -3.8 -0.1 0 0 Z " fill="#0F100B" transform="translate(69.5625,24.9375)"/>
<path d="M0 0 C5.7 4.2 5.7 4.2 7 8 C7.1 10.7 7.1 10.7 7 13 C2.7 16 -1.2 16.9 -6.3 17.7 C-7.4 17.9 -7.4 17.9 -8.6 18.1 C-10.4 18.4 -12.2 18.7 -14 19 C-14.7 20.3 -15.3 21.6 -16 23 C-18.3 23 -20.6 23 -23 23 C-23 22.7 -23 22.3 -23 22 C-21 22 -19 22 -17 22 C-16.9 21.4 -16.7 20.7 -16.6 20.1 C-16 18 -16 18 -15 17 C-12.7 16.4 -10.4 16 -8 15.5 C-6 15.2 -6 15.2 -5 14 C-3.8 13.8 -2.6 13.6 -1.4 13.4 C-0.8 13.4 -0.2 13.3 0.5 13.2 C1 13.1 1.5 13.1 2 13 C2.3 12.3 2.7 11.7 3 11 C3.7 11 4.3 11 5 11 C5 9.7 5 8.4 5 7 C4 6.7 3 6.3 2 6 C1.3 4 0.7 2 0 0 Z " fill="#C0B2AD" transform="translate(121,159)"/>
<path d="M0 0 C0.3 0.7 0.7 1.3 1 2 C-0.3 2.3 -1.6 2.7 -3 3 C-3 3.7 -3 4.3 -3 5 C-4 6 -5 7 -6 8 C-7.2 10.1 -7.2 10.1 -8 12 C-8 11 -8 10 -8 9 C-15.6 9 -23.2 9 -31 9 C-31 8.3 -31 7.7 -31 7 C-30.5 7 -30 7 -29.4 7 C-18.2 6.9 -9.5 6.2 0 0 Z " fill="#997A6A" transform="translate(31,155)"/>
<path d="M0 0 C0.7 0 1.3 0 2 0 C1.7 0.8 1.4 1.5 1.1 2.3 C-0.3 6.3 -0.4 10.3 -0.7 14.5 C-1 17.1 -1.6 18 -3 20 C-3.3 21.7 -3.3 21.7 -3.4 23.6 C-4 29.5 -5.6 35.1 -9 40 C-8.4 33 -7.1 26.3 -5.6 19.4 C-5.3 18 -5.3 18 -5 16.4 C-3.8 10.8 -2.2 5.4 0 0 Z " fill="#355547" transform="translate(47,51)"/>
<path d="M0 0 C2 0 4 0 6 0 C6.3 0.7 6.7 1.3 7 2 C10.3 2.3 13.6 2.7 17 3 C18 5 19 7 20 9 C19 9 18 9 17 9 C17 8.3 17 7.7 17 7 C14.4 6.7 11.7 6.3 9 6 C9.7 8 10.3 10 11 12 C8.3 10.6 7.3 8.9 5.9 6.2 C4.4 4.1 2.3 3.2 0 2 C0 1.3 0 0.7 0 0 Z " fill="#926B60" transform="translate(43,171)"/>
<path d="M0 0 C0.7 0.3 1.3 0.7 2 1 C1.1 3.4 0.2 5.7 -1 7.9 C-2.1 10.1 -2.3 11.7 -2.4 14.1 C-2.8 18.9 -4.3 23 -6.1 27.4 C-7 29.9 -7.5 32.4 -8 35 C-8.3 35 -8.7 35 -9 35 C-9 33.9 -9 32.8 -9.1 31.6 C-9.1 31 -9.1 30.4 -9.1 29.7 C-9 28 -9 28 -8 26 C-7.8 25 -7.6 24 -7.5 23 C-7.4 22.4 -7.3 21.8 -7.2 21.2 C-7.1 20.3 -7.1 20.3 -6.9 19.4 C-6.8 18.8 -6.8 18.2 -6.7 17.5 C-6.4 16 -6.2 14.5 -6 13 C-5.3 13 -4.7 13 -4 13 C-4.1 11.7 -4.1 11.7 -4.2 10.4 C-4.3 6.3 -2.2 3.4 0 0 Z " fill="#43A067" transform="translate(127,119)"/>
<path d="M0 0 C1.7 0.3 3.3 0.7 5 1 C5.2 4 4.9 5.6 3 8 C1.3 8 -0.3 8 -2 8 C-2 8.7 -2 9.3 -2 10 C1.5 9.5 1.5 9.5 5 9 C5.3 8.3 5.7 7.7 6 7 C6.7 7.3 7.3 7.7 8 8 C6 10.7 4.3 12.8 0.9 13.3 C-1.1 13.3 -3 13.2 -5 13 C-5.7 11.7 -6.3 10.4 -7 9 C-6 8.7 -5 8.3 -4 8 C-4.3 6.3 -4.7 4.7 -5 3 C-4 3.7 -3 4.3 -2 5 C-2 5.7 -2 6.3 -2 7 C-0.7 6.7 0.6 6.3 2 6 C2.3 4.7 2.7 3.4 3 2 C2 1.7 1 1.3 0 1 C0 0.7 0 0.3 0 0 Z " fill="#355547" transform="translate(85,98)"/>
<path d="M0 0 C0.1 0.6 0.2 1.2 0.2 1.9 C1.3 4.7 2.3 4.8 5 6 C10.3 9.3 10.3 9.3 12 11 C13.7 11.2 15.4 11.4 17.1 11.6 C18 11.6 18.9 11.7 19.8 11.8 C20.6 11.9 21.3 11.9 22 12 C22.3 13 22.7 14 23 15 C26.3 15 29.6 15 33 15 C33.5 17.5 33.5 17.5 34 20 C33.3 18.7 32.7 17.4 32 16 C28.7 16 25.4 16 22 16 C21.7 15 21.3 14 21 13 C17.4 13 13.7 13 10 13 C9.7 12 9.3 11 9 10 C8.1 9.9 7.2 9.8 6.2 9.8 C2.7 9.2 1.3 7.7 -1 5 C-0.7 3.3 -0.3 1.7 0 0 Z " fill="#BBA198" transform="translate(28,158)"/>
<path d="M0 0 C1 0.3 2 0.7 3 1 C3 2.3 3 3.6 3 5 C4 5.3 5 5.7 6 6 C4 6 2 6 0 6 C0 6.7 0 7.3 0 8 C-4.6 9.4 -7.7 8.5 -12 7 C-10.6 4.2 -8.9 4 -6 3 C-5.3 2.8 -4.6 2.7 -3.8 2.5 C-1.8 2.1 -1.8 2.1 0 0 Z " fill="#090B06" transform="translate(176,98)"/>
<path d="M0 0 C3.8 -0.1 7.6 -0.1 11.4 -0.1 C12.5 -0.1 13.5 -0.2 14.6 -0.2 C15.7 -0.2 16.7 -0.2 17.8 -0.2 C19.2 -0.2 19.2 -0.2 20.7 -0.2 C23 0 23 0 25 2 C27.1 2.2 27.1 2.2 29 2 C29.3 1.3 29.7 0.7 30 0 C31.7 0 33.3 0 35 0 C35 1 35 2 35 3 C34 3 33 3 32 3 C31.7 3.3 31.3 3.7 31 4 C29.5 4.1 29.5 4.1 27.6 4.1 C27 4.1 26.4 4.1 25.8 4.1 C24 4 24 4 22.7 3.5 C20.5 2.9 18.6 2.8 16.3 2.7 C15.4 2.6 14.5 2.6 13.6 2.6 C12.7 2.5 11.8 2.5 10.8 2.4 C9.9 2.4 8.9 2.4 8 2.3 C5.6 2.2 3.3 2.1 1 2 C0.7 1.3 0.3 0.7 0 0 Z " fill="#BAA19A" transform="translate(62,178)"/>
<path d="M0 0 C1.1 0.2 1.1 0.2 2.3 0.4 C5.4 0.9 8.5 1.3 11.6 1.7 C12.6 1.8 13.7 1.9 14.7 2.1 C16.9 2.3 19 2.6 21.1 2.8 C26.6 3.5 31.8 4.3 37 6 C37 6.3 37 6.7 37 7 C34.4 7.1 31.8 7.1 29.2 7.1 C28.4 7.1 27.7 7.2 27 7.2 C26.2 7.2 25.5 7.2 24.8 7.2 C24.1 7.2 23.5 7.2 22.8 7.2 C20.7 7 19.7 6.2 18 5 C16.3 4.6 16.3 4.6 14.5 4.5 C13.9 4.4 13.2 4.3 12.6 4.3 C11.2 4.1 9.8 4 8.4 3.9 C2.3 3.2 2.3 3.2 0 0 Z " fill="#D39F13" transform="translate(143,75)"/>
<path d="M0 0 C0.7 0.3 1.3 0.7 2 1 C1.7 1.4 1.5 1.9 1.2 2.4 C-4.2 12.5 -5.9 23.8 -8 35 C-8.3 35 -8.7 35 -9 35 C-9 33.2 -9 31.4 -9.1 29.6 C-9.1 29.1 -9.1 28.6 -9.1 28.1 C-9.1 25.7 -9.1 24.2 -8 22 C-7.7 19.7 -7.6 17.5 -7.4 15.2 C-7 12.9 -6.3 11.9 -5 10 C-4.3 8.2 -4.3 8.2 -3.9 6.3 C-3.7 5.7 -3.5 5.1 -3.4 4.4 C-3.2 4 -3.1 3.5 -3 3 C-2.3 3 -1.7 3 -1 3 C-0.7 2 -0.3 1 0 0 Z " fill="#449A69" transform="translate(48,47)"/>
<path d="M0 0 C1.6 0.3 1.6 0.3 2.8 1.8 C5.5 4.2 8.3 3.7 11.8 3.5 C12.4 3.5 13.1 3.5 13.7 3.5 C15.4 3.4 17 3.4 18.6 3.3 C18.6 4.3 18.6 5.3 18.6 6.3 C19.6 6.7 20.6 7 21.6 7.3 C21.6 8 21.6 8.6 21.6 9.3 C20.6 9.3 19.6 9.3 18.6 9.3 C18.2 8.7 17.9 8 17.6 7.3 C16.7 7.3 15.9 7.2 15.1 7.1 C14 7.1 12.9 7 11.8 6.9 C10.9 6.8 10.9 6.8 10.1 6.8 C3.3 6.2 3.3 6.2 1.4 3.8 C1.1 3.3 0.8 2.8 0.6 2.3 C-0.1 2.5 -0.8 2.7 -1.5 2.8 C-4.9 3.4 -8 3.4 -11.4 3.3 C-11.1 2.7 -10.8 2 -10.4 1.3 C-9.2 1.4 -9.2 1.4 -8 1.4 C-5.1 1.3 -3.1 0.2 0 0 Z " fill="#E2F0E7" transform="translate(99.4296875,151.671875)"/>
<path d="M0 0 C5.2 5.2 5.3 11.9 5 19 C4 19.3 3 19.7 2 20 C1.8 21.1 1.8 21.1 1.7 22.3 C1 25.2 0.2 26.2 -2 28 C-1.7 26.3 -1.3 24.7 -1 23 C-0.3 23 0.3 23 1 23 C0.7 15.4 0.3 7.8 0 0 Z " fill="#203629" transform="translate(35,125)"/>
<path d="M0 0 C0.3 0 0.7 0 1 0 C1.1 0.7 1.2 1.3 1.2 2 C1.6 5.2 2 8.3 2.4 11.4 C2.5 12.4 2.6 13.5 2.8 14.6 C3.6 21.1 4.6 27.6 6 34 C6.7 34 7.3 34 8 34 C6.8 36.3 6.4 36.4 4 37 C4 35.7 4 34.4 4 33 C3.3 33 2.7 33 2 33 C1.9 32.1 1.9 31.1 1.8 30.2 C1.7 29 1.6 27.8 1.6 26.6 C1.5 26 1.5 25.3 1.4 24.7 C1.4 21.6 1.4 21.6 0 19 C-0.1 17.6 -0.1 16.2 -0.1 14.7 C-0.1 13.9 -0.1 13 -0.1 12.2 C-0.1 11.3 -0.1 10.4 -0.1 9.4 C-0.1 8.5 -0.1 7.6 -0 6.7 C-0 4.5 -0 2.2 0 0 Z " fill="#87C15B" transform="translate(121,84)"/>
<path d="M0 0 C-2.1 2.1 -3.7 2.9 -6.4 4 C-9.1 5.7 -11.7 7.3 -12.3 10.6 C-12.4 12.5 -12.3 14.4 -12.2 16.2 C-12.2 16.9 -12.2 17.5 -12.2 18.2 C-12.1 19.8 -12.1 21.4 -12 23 C-15.1 19.6 -16.5 17.7 -16.4 12.9 C-16.4 12 -16.4 11.2 -16.4 10.3 C-15.9 7.6 -15.3 6.6 -13 5 C-12 5 -11 5 -10 5 C-10 4 -10 3 -10 2 C-6.5 0.4 -3.9 -0.2 0 0 Z " fill="#459E6B" transform="translate(79,72)"/>
<path d="M0 0 C0.7 0 1.3 0 2 0 C2.3 3 2.7 5.9 3 9 C4 9.3 5 9.7 6 10 C5.3 10 4.7 10 4 10 C3.7 12 3.3 14 3 16 C2.3 16 1.7 16 1 16 C1 14.3 1 12.7 1 11 C-1 12 -1 12 -3 13 C-2.9 11.4 -2.8 9.8 -2.6 8.2 C-2.6 7.3 -2.5 6.4 -2.4 5.5 C-2 3.1 -1.5 1.9 0 0 Z " fill="#12170D" transform="translate(130,119)"/>
<path d="M0 0 C-0.7 0.2 -1.3 0.3 -2 0.5 C-7.4 2 -11.5 3.6 -16 7 C-16.3 11 -16.7 14.9 -17 19 C-16.3 19 -15.7 19 -15 19 C-14.7 21 -14.3 23 -14 25 C-19 20.5 -19.5 16.2 -19.4 9.5 C-18.8 6 -17.6 4.4 -14.9 2.1 C-10.2 -0.6 -5.2 -1.6 0 0 Z " fill="#355647" transform="translate(85,74)"/>
<path d="M0 0 C4 -0.4 6.2 -0 9.8 1.9 C12.9 3.6 15.6 4.4 19.1 5 C23.6 5.8 26.6 7.1 30 10 C26.9 11 25.1 11 22 9.9 C21.2 9.6 20.4 9.3 19.6 9 C15.2 7.3 10.8 5.5 6.4 3.6 C4.3 2.7 2.1 1.8 0 1 C0 0.7 0 0.3 0 0 Z " fill="#429365" transform="translate(56,118)"/>
<path d="M0 0 C9.6 -1.1 9.6 -1.1 12.9 1.5 C14 2.8 15.1 4.1 16.2 5.4 C19.5 8.3 23.7 8.1 28 8 C28 8.7 28 9.3 28 10 C23.4 10 18.8 10 14 10 C13.3 8 12.7 6 12 4 C8.2 1.6 4.3 1.8 0 2 C0 1.3 0 0.7 0 0 Z " fill="#DBF2E4" transform="translate(50,147)"/>
<path d="M0 0 C0.3 0.7 0.7 1.3 1 2 C0.6 2 0.1 2.1 -0.3 2.1 C-4.6 2.6 -8.4 3.5 -12 6 C-12.3 6.7 -12.7 7.3 -13 8 C-13.7 8 -14.3 8 -15 8 C-15.3 9 -15.7 10 -16 11 C-16.7 11 -17.3 11 -18 11 C-18 11.7 -18 12.3 -18 13 C-19 12.7 -20 12.3 -21 12 C-20 9.7 -19 7.4 -18 5 C-16.3 5 -14.7 5 -13 5 C-13 4 -13 3 -13 2 C-8.7 1.3 -4.4 0.7 0 0 Z " fill="#B0962F" transform="translate(157,115)"/>
<path d="M0 0 C0.3 0 0.7 0 1 0 C1.5 5.1 0.5 8.1 -3 12 C-5.2 13.8 -6.7 14.3 -9.6 14.3 C-10.3 14.3 -11 14.3 -11.7 14.3 C-12.4 14.3 -13.1 14.3 -13.8 14.2 C-14.5 14.3 -15.2 14.3 -15.9 14.3 C-20.4 14.3 -23.9 13.6 -28 12 C-28 11.7 -28 11.3 -28 11 C-26.9 11 -25.8 11 -24.7 10.9 C-24.1 10.9 -23.5 10.9 -22.8 10.9 C-21 11 -21 11 -19.5 11.5 C-17.5 12.2 -15.7 12.2 -13.6 12.2 C-12.4 12.2 -12.4 12.2 -11.3 12.2 C-8.6 12 -7.2 11.5 -5 10 C-3.9 8.3 -3.1 6.7 -2.2 4.9 C-2 4.4 -1.8 3.9 -1.6 3.5 C-1 2.3 -0.5 1.2 0 0 Z " fill="#47AC71" transform="translate(113,130)"/>
<path d="M0 0 C-0.3 1 -0.7 2 -1 3 C-2.3 3 -3.6 3 -5 3 C-5.3 4 -5.7 5 -6 6 C-6.3 5.3 -6.7 4.7 -7 4 C-6.7 3.3 -6.3 2.7 -6 2 C-7.5 2.1 -8.9 2.2 -10.4 2.4 C-11.2 2.4 -12 2.5 -12.8 2.6 C-15.2 2.8 -15.2 2.8 -17 5 C-19.2 5.2 -19.2 5.2 -21.6 5.1 C-22.4 5.1 -23.3 5.1 -24.1 5.1 C-24.7 5 -25.4 5 -26 5 C-18.7 -1 -9 -0.3 0 0 Z " fill="#916F0F" transform="translate(166,109)"/>
<path d="M0 0 C2.5 -0 5 -0 7.4 -0.1 C8.1 -0.1 8.9 -0.1 9.6 -0.1 C10.6 -0.1 10.6 -0.1 11.6 -0.1 C12.6 -0.1 12.6 -0.1 13.5 -0.1 C15 0 15 0 16 1 C17.5 1.2 17.5 1.2 19.2 1.3 C20.1 1.4 20.1 1.4 21.1 1.4 C21.7 1.5 22.4 1.5 23.1 1.6 C23.7 1.6 24.4 1.6 25.1 1.7 C26.7 1.8 28.4 1.9 30 2 C30 2.7 30 3.3 30 4 C19.9 4.4 10 3.2 0 2 C0 1.3 0 0.7 0 0 Z " fill="#2D2B33" transform="translate(54,50)"/>
<path d="M0 0 C0.9 3.2 1.1 6 1.1 9.2 C1.1 10.1 1 11 1 12 C1 12.6 1 13.3 1 14 C1.6 14.2 2.3 14.3 2.9 14.5 C7.9 15.7 7.9 15.7 9 18 C10.5 19.1 10.5 19.1 12 20 C5.8 20.9 2.6 17.9 -2 14 C-2.4 4.6 -2.4 4.6 0 0 Z " fill="#32443F" transform="translate(43,100)"/>
<path d="M0 0 C0.3 0 0.7 0 1 0 C1 4 1 7.9 1 12 C0 10.7 -1 9.4 -2 8 C-4.1 7.2 -4.1 7.2 -6 7 C-6.3 8 -6.7 9 -7 10 C-8.8 8.2 -8.1 5.4 -8 3 C-4.9 2 -3.1 2 0 3 C0 2 0 1 0 0 Z " fill="#1A2C1E" transform="translate(14,67)"/>
<path d="M0 0 C5.6 0 11.2 0 17 0 C17.3 1.7 17.7 3.3 18 5 C17.3 4.7 16.7 4.3 16 4 C14.8 3.9 13.5 3.8 12.3 3.7 C11.6 3.6 10.9 3.6 10.1 3.6 C9.4 3.5 8.6 3.5 7.9 3.4 C7.1 3.4 6.4 3.4 5.6 3.3 C3.7 3.2 1.9 3.1 0 3 C0 2 0 1 0 0 Z " fill="#EFEBE9" transform="translate(69,175)"/>
<path d="M0 0 C1.8 3.3 3 6.7 4.2 10.3 C4.9 12.2 4.9 12.2 7 13 C7 15.3 7 17.6 7 20 C8 20.3 9 20.7 10 21 C10.3 23.3 10.7 25.6 11 28 C10.3 27.7 9.7 27.3 9 27 C9 26 9 25 9 24 C8.3 24 7.7 24 7 24 C-0.4 6.8 -0.4 6.8 0 0 Z " fill="#2F764C" transform="translate(17,81)"/>
<path d="M0 0 C4.6 4.5 4.8 8.8 5 15 C3.7 14 2.4 13 1 12 C0.7 16.3 0.3 20.6 0 25 C-0.3 25 -0.7 25 -1 25 C-1.1 24.4 -1.1 23.8 -1.2 23.2 C-1.3 22.4 -1.4 21.6 -1.4 20.8 C-1.5 20 -1.6 19.2 -1.7 18.4 C-2 16.2 -2.4 14.1 -3 12 C-2 11.7 -1 11.3 0 11 C0.7 8.7 1.3 6.4 2 4 C1.3 4 0.7 4 0 4 C0 2.7 0 1.4 0 0 Z " fill="#0F2417" transform="translate(31,118)"/>
<path d="M0 0 C2.9 1.1 4.8 1.8 7 4 C3 6.7 -1 6.2 -5.7 6.2 C-7.4 6.2 -9.1 6.2 -10.9 6.2 C-12.6 6.2 -14.4 6.1 -16.2 6.1 C-18 6.1 -19.8 6.1 -21.7 6.1 C-26.1 6.1 -30.6 6 -35 6 C-35 5.7 -35 5.3 -35 5 C-23.1 4.7 -11.2 4.3 1 4 C0.5 2 0.5 2 0 0 Z " fill="#3F835D" transform="translate(92,51)"/>
<path d="M0 0 C1.4 3.9 0.6 6.8 -0.4 10.7 C-0.5 11.3 -0.7 11.9 -0.8 12.5 C-1.9 16.9 -1.9 16.9 -3 18 C-3.2 19.5 -3.4 21 -3.6 22.6 C-3.6 23.4 -3.7 24.2 -3.8 25.1 C-3.9 25.7 -3.9 26.3 -4 27 C-4.7 27 -5.3 27 -6 27 C-6.3 27.7 -6.7 28.3 -7 29 C-6.7 26.4 -6.4 23.7 -6.1 21.1 C-6 20.4 -6 19.6 -5.9 18.9 C-5.8 17.8 -5.8 17.8 -5.6 16.7 C-5.5 15.7 -5.5 15.7 -5.4 14.7 C-5 13 -5 13 -3 11 C-2.6 9.1 -2.6 9.1 -2.5 7.1 C-2.3 4.1 -1.8 2.4 0 0 Z " fill="#345145" transform="translate(52,64)"/>
<path d="M0 0 C2.2 2.6 2.2 4.6 2 8 C2.7 8 3.3 8 4 8 C4 9 4 10 4 11 C2.7 10.7 1.4 10.3 0 10 C0 9.3 0 8.7 0 8 C-1.3 8 -2.6 8 -4 8 C-4 6.9 -4 5.7 -4.1 4.6 C-4.1 3.9 -4.1 3.3 -4.1 2.6 C-3.9 -0.4 -3 0 0 0 Z " fill="#46AB6D" transform="translate(128,148)"/>
<path d="M0 0 C1 0 2 0 3 0 C2.7 1 2.3 2 2 3 C1 3 0 3 -1 3 C2.7 10.3 8.5 11.7 16 14 C16 14.3 16 14.7 16 15 C8.6 15.5 8.6 15.5 6.3 13.7 C5.9 13.1 5.4 12.6 5 12 C3.4 11 1.7 10 0 9 C-1 8.3 -2 7.7 -3 7 C-2.7 5.3 -2.3 3.7 -2 2 C-1.3 2 -0.7 2 0 2 C0 1.3 0 0.7 0 0 Z " fill="#D4C5C0" transform="translate(32,155)"/>
<path d="M0 0 C0.7 0 1.3 0 2 0 C2.3 1.3 2.7 2.6 3 4 C4.7 4 6.3 4 8 4 C8 4.7 8 5.3 8 6 C9.3 6 10.6 6 12 6 C12.3 7.3 12.7 8.6 13 10 C12 9.7 11 9.3 10 9 C9.7 9.7 9.3 10.3 9 11 C9.7 11 10.3 11 11 11 C10.7 12 10.3 13 10 14 C7.5 11.6 5.4 9.1 3.3 6.4 C3 6 2.7 5.6 2.3 5.2 C0 2.2 0 2.2 0 0 Z " fill="#32372E" transform="translate(119,154)"/>
<path d="M0 0 C3 0.5 3 0.5 6 1 C6 1.7 6 2.3 6 3 C7.7 3.3 9.3 3.7 11 4 C11 5.7 11 7.3 11 9 C9.7 9.3 8.4 9.7 7 10 C5.8 8.5 4.7 7 3.5 5.6 C3.2 5.1 2.8 4.7 2.5 4.3 C0 1.1 0 1.1 0 0 Z " fill="#050603" transform="translate(180,76)"/>
<path d="M0 0 C0.7 0.3 1.3 0.7 2 1 C0.6 2 -0.8 2.9 -2.2 3.9 C-3.4 4.7 -3.4 4.7 -4.5 5.5 C-10.4 9.1 -15.1 9.3 -21.8 9.1 C-22.7 9.1 -23.6 9.1 -24.5 9.1 C-26.7 9.1 -28.8 9 -31 9 C-31 8.7 -31 8.3 -31 8 C-30.6 8 -30.2 8 -29.8 8 C-18.5 7.6 -18.5 7.6 -8 4 C-7.3 3.6 -6.5 3.3 -5.7 2.9 C-3.8 2 -1.9 1 0 0 Z " fill="#3A2F28" transform="translate(31,153)"/>
<path d="M0 0 C-0.8 0.3 -1.6 0.5 -2.4 0.8 C-3.5 1.1 -4.6 1.5 -5.7 1.8 C-6.5 2.1 -6.5 2.1 -7.3 2.3 C-12.2 3.9 -16.4 5.7 -19.5 10 C-21.7 12.8 -23.8 14.4 -27 16 C-22.8 6.6 -15.5 2.6 -6.1 -0.6 C-3.7 -1 -2.2 -0.7 0 0 Z " fill="#276440" transform="translate(53,38)"/>
<path d="M0 0 C9 8.7 9 8.7 9 12 C10 12.3 11 12.7 12 13 C12.3 14 12.7 15 13 16 C12 16 11 16 10 16 C10 15.3 10 14.7 10 14 C8.3 13.7 6.7 13.3 5 13 C4.7 12.3 4.5 11.5 4.2 10.8 C3.1 8 3.1 8 1.4 5.9 C-0.2 3.7 -0.3 2.6 0 0 Z " fill="#408860" transform="translate(67,95)"/>
<path d="M0 0 C0 2.8 -0.4 5.2 -1 8 C-1.7 8 -2.3 8 -3 8 C-3.3 9.3 -3.7 10.6 -4 12 C-4.7 12 -5.3 12 -6 12 C-7.2 15 -7.3 18 -7.6 21.2 C-7.6 21.7 -7.6 22.3 -7.7 22.9 C-7.8 24.3 -7.9 25.6 -8 27 C-8.3 27 -8.7 27 -9 27 C-9.9 16.8 -8.6 8.9 -1.3 1.2 C-0.9 0.8 -0.4 0.4 0 0 Z " fill="#39915D" transform="translate(25,54)"/>
<path d="M0 0 C2.3 0 4.6 0 7 0 C7 1 7 2 7 3 C9 3 11 3 13 3 C13 4 13 5 13 6 C11 6 9 6 7 6 C6.7 5.3 6.3 4.7 6 4 C4.3 3.7 2.7 3.3 1 3 C0.7 4 0.3 5 0 6 C-1.3 5.7 -2.6 5.3 -4 5 C-3 5 -2 5 -1 5 C-0.7 3.3 -0.3 1.7 0 0 Z " fill="#E9E3E0" transform="translate(91,175)"/>
<path d="M0 0 C3.3 2.6 4.1 5.6 5.2 9.6 C5.4 10.2 5.5 10.7 5.7 11.3 C7 15.7 7 15.7 7 18 C3.1 16.1 3.1 16.1 2 15 C1.8 13.6 1.6 12.2 1.5 10.8 C1.1 7.2 0.6 3.6 0 0 Z " fill="#5E433A" transform="translate(132,174)"/>
<path d="M0 0 C5.9 2.4 9.4 8.6 11.4 14.6 C11.6 15.4 11.8 16.2 12 17 C11 17 10 17 9 17 C8.7 16 8.3 15 8 14 C7.7 14.7 7.3 15.3 7 16 C6.3 16 5.7 16 5 16 C4 13.8 4 13.1 4.7 10.7 C5.1 6.8 3.3 5 1 2 C0.7 1.3 0.3 0.7 0 0 Z " fill="#A6806B" transform="translate(46,175)"/>
<path d="M0 0 C2.6 0 5.3 0 8 0 C8 0.7 8 1.3 8 2 C6 3 6 3 4 4 C5.7 5 7.3 6 9 7 C6 8.3 4.5 8 1.8 6.6 C0.8 6.1 -0.1 5.5 -1 5 C-1 2 -1 2 0 0 Z " fill="#191608" transform="translate(139,66)"/>
<path d="M0 0 C2 1 2 1 4 2 C4 3 4 4 4 5 C5 5.3 6 5.7 7 6 C5.5 10.7 5.5 10.7 2.9 12.3 C1.9 12.7 1.9 12.7 1 13 C1 12.2 1 12.2 1 11.4 C1.1 7.5 1 3.9 0 0 Z " fill="#040502" transform="translate(26,118)"/>
<path d="M0 0 C1 0 2 0 3 0 C3 3.3 3 6.6 3 10 C2 10 1 10 0 10 C-0.3 11 -0.7 12 -1 13 C-1.7 13 -2.3 13 -3 13 C-3 13.7 -3 14.3 -3 15 C-4.3 14.7 -5.6 14.3 -7 14 C-6.7 13.7 -6.3 13.3 -6 13 C-1.4 8.5 0.3 6.5 0 0 Z " fill="#47AB71" transform="translate(95,96)"/>
<path d="M0 0 C0 0.7 0 1.3 0 2 C0.7 2 1.3 2 2 2 C2 2.7 2 3.3 2 4 C-1 3.5 -1 3.5 -4 3 C-4.3 3.6 -4.6 4.3 -4.9 4.9 C-6 7 -6 7 -7 8 C-9 8.1 -11 8.1 -13.1 8.1 C-13.6 8.1 -14.2 8.1 -14.8 8 C-16.2 8 -17.6 8 -19 8 C-19 7.7 -19 7.3 -19 7 C-15.4 7 -11.7 7 -8 7 C-7.7 5.7 -7.3 4.4 -7 3 C-4.9 0.2 -3.5 -0.4 0 0 Z " fill="#EFF8F3" transform="translate(86,150)"/>
<path d="M0 0 C7.3 1 13.4 2.6 20 6 C20 6.3 20 6.7 20 7 C15 7.3 10.8 6.6 6 5 C6 4.3 6 3.7 6 3 C3 2.5 3 2.5 0 2 C0 1.3 0 0.7 0 0 Z " fill="#31423E" transform="translate(55,120)"/>
<path d="M0 0 C-1.2 2.5 -2.4 4.8 -4 7 C-4.8 6.9 -5.7 6.9 -6.5 6.8 C-10.1 6.8 -13 8 -16.3 9.4 C-18 10 -18 10 -20 9 C-19.2 8.7 -18.4 8.4 -17.6 8 C-16.5 7.6 -15.4 7.2 -14.3 6.8 C-13.8 6.5 -13.3 6.3 -12.7 6.1 C-9.9 5 -7.6 3.8 -5.3 1.8 C-3 0 -3 0 0 0 Z " fill="#453609" transform="translate(184,92)"/>
<path d="M0 0 C1 0 2 0 3 0 C3 1.7 3 3.3 3 5 C3.7 5 4.3 5 5 5 C5.3 7.3 5.7 9.6 6 12 C3.3 13.3 1.8 12.7 -1 12 C-1.7 10.7 -2.3 9.4 -3 8 C-2 8 -1 8 0 8 C0.3 8.7 0.7 9.3 1 10 C2.5 10.6 2.5 10.6 4 11 C4 10 4 9 4 8 C3.3 8 2.7 8 2 8 C1.3 5.4 0.7 2.7 0 0 Z " fill="#5E8354" transform="translate(128,148)"/>
<path d="M0 0 C2.5 0.5 2.5 0.5 5 1 C5.3 2 5.7 3 6 4 C6.9 3.9 6.9 3.9 7.9 3.8 C9.1 3.6 9.1 3.6 10.3 3.5 C11.1 3.4 11.9 3.3 12.7 3.2 C15 3 15 3 18 3 C16.2 5.2 15.4 6 12.5 6.3 C11.2 6.2 11.2 6.2 9.8 6.2 C8.5 6.1 8.5 6.1 7.1 6.1 C5 6 5 6 0 0 Z " fill="#77D19B" transform="translate(62,148)"/>
<path d="M0 0 C6.2 1.6 12.2 3.2 18 6 C14.6 7.1 12.2 6.8 8.8 6.1 C7.9 5.9 7 5.7 6 5.5 C5 5.2 5 5.2 4 5 C4 4.3 4 3.7 4 3 C2.7 2.7 1.4 2.3 0 2 C0 1.3 0 0.7 0 0 Z " fill="#3F865F" transform="translate(45,125)"/>
<path d="M0 0 C0.7 0.3 1.3 0.7 2 1 C1.7 1.4 1.4 1.8 1.1 2.1 C-1.3 5.5 -2.5 7.7 -2 12 C-4 13 -4 13 -6 14 C-5.8 5.1 -5.8 5.1 -3.8 2.4 C-2.4 1.4 -2.4 1.4 0 0 Z " fill="#E1AB15" transform="translate(140,114)"/>
<path d="M0 0 C-6.8 3.5 -13.4 6.3 -21 7 C-22.7 7.3 -24.3 7.6 -26 8 C-24.6 5.1 -23 5.3 -19.9 4.6 C-16.5 3.7 -13.4 2.8 -10.2 1.3 C-6.8 -0.3 -3.7 -0.3 0 0 Z " fill="#98720D" transform="translate(163,102)"/>
<path d="M0 0 C1.4 -0 2.9 -0 4.3 -0.1 C5.5 -0.1 5.5 -0.1 6.7 -0.1 C9 0 9 0 12 1 C12.3 3.6 12.7 6.3 13 9 C12 10 11 11 10 12 C10 11.4 10 10.9 10.1 10.3 C10.1 9.6 10.1 8.9 10.1 8.1 C10.2 7 10.2 7 10.2 5.9 C10.2 3.8 10.2 3.8 8 2 C6.3 1.5 6.3 1.5 4.4 1.4 C3.7 1.3 3.1 1.2 2.5 1.1 C2 1.1 1.5 1.1 1 1 C1.3 2.3 1.7 3.6 2 5 C1 4.7 0 4.3 -1 4 C-0.7 2.7 -0.3 1.4 0 0 Z " fill="#3D7D5A" transform="translate(83,93)"/>
<path d="M0 0 C3 1 5.9 2 9 3 C9 3.7 9 4.3 9 5 C5.3 6.2 1.8 6.1 -2 6 C-1.1 1.1 -1.1 1.1 0 0 Z " fill="#2D422A" transform="translate(171,69)"/>
<path d="M0 0 C4.1 -0.3 5.9 0.3 9 3 C9 4.3 9 5.6 9 7 C6.4 6.3 3.7 5.7 1 5 C0.7 3.4 0.3 1.7 0 0 Z " fill="#060804" transform="translate(129,60)"/>
<path d="M0 0 C0.3 0.7 0.7 1.3 1 2 C1.7 2 2.3 2 3 2 C2.7 3.7 2.3 5.3 2 7 C1 7.5 0.1 8 -0.9 8.5 C-1.4 8.8 -1.9 9.1 -2.5 9.3 C-4 10 -4 10 -6 10 C-6 8.7 -6 7.4 -6 6 C-4.4 5.3 -2.7 4.7 -1 4 C-0.7 2.7 -0.3 1.4 0 0 Z " fill="#050603" transform="translate(27,148)"/>
<path d="M0 0 C1 0.3 2 0.7 3 1 C3 2.3 3 3.6 3 5 C3.5 5.1 3.9 5.1 4.4 5.2 C6.9 6.5 7.2 8.3 8 11 C8.1 13.3 8.1 13.3 8 15 C6.6 14.8 6.6 14.8 5 14 C3.9 11.9 3.9 11.9 2.9 9.2 C2.5 8.3 2.2 7.4 1.9 6.5 C1.1 4.4 0.5 2.2 0 0 Z " fill="#1C1D15" transform="translate(14,101)"/>
<path d="M0 0 C0.7 0 1.3 0 2 0 C2.3 2.3 2.7 4.6 3 7 C4 7.3 5 7.7 6 8 C5.7 9.7 5.3 11.3 5 13 C4 13 3 13 2 13 C0.2 8.5 -0.3 4.8 0 0 Z " fill="#62583D" transform="translate(141,173)"/>
<path d="M0 0 C1.3 0 2.6 0 4 0 C4 0.7 4 1.3 4 2 C5 2.3 6 2.7 7 3 C7 3.7 7 4.3 7 5 C7.8 5.1 8.5 5.2 9.3 5.3 C12.2 6 13.2 6.8 15 9 C8 8.2 4.1 5.7 0 0 Z " fill="#345044" transform="translate(38,118)"/>
<path d="M0 0 C0.3 0 0.7 0 1 0 C1 1.5 1 3 1.1 4.4 C1.1 5.3 1.1 6.1 1.1 6.9 C1 9 1 9 0 10 C-0.3 15.1 -0.3 20.1 1 25 C-0.9 23.7 -1.9 22.6 -2.3 20.3 C-2.4 18.3 -2.4 16.2 -2.3 14.2 C-2.3 13.5 -2.3 12.8 -2.3 12.1 C-2.3 7.6 -1.6 4.1 0 0 Z " fill="#32463F" transform="translate(37,93)"/>
<path d="M0 0 C5 0 9.9 0 15 0 C15 0.7 15 1.3 15 2 C12 2.9 9.4 3.1 6.2 3.1 C5.5 3.1 4.7 3 3.8 3 C3.2 3 2.6 3 2 3 C1.3 2 0.7 1 0 0 Z " fill="#64CA8D" transform="translate(102,151)"/>
<path d="M0 0 C0.3 0 0.7 0 1 0 C1 3.3 1 6.6 1 10 C0 10 -1 10 -2 10 C-3 7.7 -4 5.4 -5 3 C-4.3 2.7 -3.7 2.3 -3 2 C-2.3 2.3 -1.7 2.7 -1 3 C-0.7 2 -0.3 1 0 0 Z " fill="#47AE71" transform="translate(32,102)"/>
<path d="M0 0 C1.7 0 3.3 0 5 0 C1.7 3.5 -0.7 5.9 -5.8 6.1 C-6.5 6.1 -7.2 6 -8 6 C-8 5 -8 4 -8 3 C-5.4 2.7 -2.7 2.3 0 2 C0 1.3 0 0.7 0 0 Z " fill="#DEA714" transform="translate(167,96)"/>
<path d="M0 0 C1 0.7 2 1.3 3 2 C3 3.7 3 5.3 3 7 C2.3 7 1.7 7 1 7 C0.8 7.6 0.5 8.2 0.2 8.8 C-1.2 11.3 -2.6 12.5 -5 14 C-5.7 14 -6.3 14 -7 14 C-7 13 -7 12 -7 11 C-5.7 11 -4.4 11 -3 11 C-2.7 10 -2.3 9 -2 8 C-1.3 8 -0.7 8 0 8 C0 5.4 0 2.7 0 0 Z " fill="#D8A314" transform="translate(180,82)"/>
<path d="M0 0 C3 0 5.9 0 9 0 C8.7 1 8.3 2 8 3 C5.4 2.7 2.7 2.3 0 2 C-0.3 3.7 -0.7 5.3 -1 7 C-3 8 -3 8 -5 9 C-5 8.3 -5 7.7 -5 7 C-4.3 7 -3.7 7 -3 7 C-3 5.7 -3 4.4 -3 3 C-2.3 3 -1.7 3 -1 3 C-0.7 2 -0.3 1 0 0 Z " fill="#F0F6F1" transform="translate(41,146)"/>
<path d="M0 0 C5.3 -0.4 9.1 1 14 3 C16 3.7 18 4.3 20 5 C16 6.5 12.7 5.5 8.8 4.6 C7.8 4.3 7.8 4.3 6.8 4.1 C5.2 3.8 3.6 3.4 2 3 C2 2.3 2 1.7 2 1 C1.3 0.7 0.7 0.3 0 0 Z " fill="#334A41" transform="translate(75,127)"/>
<path d="M0 0 C0.6 0.2 0.6 0.2 1.1 0.5 C3.8 1.2 6.4 1.4 9.2 1.6 C9.7 1.6 10.3 1.6 10.9 1.7 C12.3 1.8 13.6 1.9 15 2 C15 2.3 15 2.7 15 3 C12.6 3.3 10.3 3.7 7.9 4 C7.2 4.1 6.5 4.2 5.9 4.3 C1.9 4.8 -2 5.1 -6 5 C-5 4.7 -4 4.3 -3 4 C-3 3 -3 2 -3 1 C-2.3 1 -1.7 1 -1 1 C-0.7 0.7 -0.3 0.3 0 0 Z " fill="#0D2014" transform="translate(70,29)"/>
<path d="M0 0 C2.9 0.6 3.9 0.9 6 3 C6.6 4.5 6.6 4.5 7.1 6.1 C7.3 6.7 7.5 7.2 7.6 7.8 C7.8 8.4 7.8 8.4 8 9 C6.7 9 5.4 9 4 9 C3.3 8.1 2.7 7.1 2 6.2 C1.4 5.4 1.4 5.4 0.9 4.6 C0 3 0 3 0 0 Z " fill="#2D2E34" transform="translate(74,98)"/>
<path d="M0 0 C4.6 1.4 9.2 3 13 6 C13.3 7 13.7 8 14 9 C11.7 8.3 9.4 7.7 7 7 C7 6.3 7 5.7 7 5 C5.7 4.7 4.4 4.3 3 4 C3 3.3 3 2.7 3 2 C2 2 1 2 0 2 C0 1.3 0 0.7 0 0 Z " fill="#9E7A11" transform="translate(129,66)"/>
<path d="M0 0 C-0.3 1 -0.7 2 -1 3 C-1.5 3.1 -1.9 3.2 -2.4 3.4 C-4.2 3.9 -4.2 3.9 -5 6 C-5.7 6 -6.3 6 -7 6 C-7 9.6 -7 13.3 -7 17 C-7.3 17 -7.7 17 -8 17 C-8 12.4 -8 7.8 -8 3 C-3 0 -3 0 0 0 Z " fill="#A6C049" transform="translate(129,67)"/>
<path d="M0 0 C5.3 0.7 10.6 1.3 16 2 C16.3 3 16.7 4 17 5 C14.7 5 12.4 5 10 5 C9.7 4 9.3 3 9 2 C6 2 3.1 2 0 2 C0 1.3 0 0.7 0 0 Z " fill="#E0B620" transform="translate(145,77)"/>
<path d="M0 0 C3 0 5.9 0 9 0 C9.7 2 10.3 4 11 6 C12 6.3 13 6.7 14 7 C13.7 7.7 13.3 8.3 13 9 C7.3 5.7 7.3 5.7 6.1 2.8 C6.1 2.2 6 1.6 6 1 C4 1 2 1 0 1 C0 0.7 0 0.3 0 0 Z " fill="#112A1A" transform="translate(92,33)"/>
<path d="M0 0 C4.7 4 5.1 10.1 5.1 16.1 C5.1 17 5 18 5 19 C4.3 19.3 3.7 19.7 3 20 C3.1 18.5 3.1 18.5 3.2 17.1 C3.2 13.1 2.1 9.8 0.7 6.1 C-0 4 -0.1 2.2 0 0 Z " fill="#2D6D46" transform="translate(35,125)"/>
<path d="M0 0 C0.1 0.6 0.2 1.2 0.2 1.9 C1.2 4.7 2.3 4.9 5 6 C6 6.6 7 7.3 8 8 C8 8.7 8 9.3 8 10 C6.9 9.7 5.7 9.5 4.6 9.2 C3.7 9 3.7 9 2.7 8.7 C0.6 7.8 -0 7.1 -1 5 C-0.6 2.3 -0.6 2.3 0 0 Z " fill="#BA9A85" transform="translate(28,158)"/>
<path d="M0 0 C1.3 3.6 0.5 6 -0.9 9.4 C-2.3 12.9 -3.4 16.3 -4 20 C-4.3 20 -4.7 20 -5 20 C-5.5 13.1 -4.2 5.7 0 0 Z " fill="#31794E" transform="translate(123,134)"/>
<path d="M0 0 C0.8 0 1.6 0 2.4 0.1 C3 0.1 3.6 0.1 4.2 0.1 C3.3 0.5 2.3 0.8 1.2 1.1 C1.2 1.8 1.2 2.4 1.2 3.1 C-2.1 3.5 -5.4 3.8 -8.8 4.1 C-8.8 3.5 -8.8 2.8 -8.8 2.1 C-5.7 0.3 -3.5 -0.1 0 0 Z " fill="#787945" transform="translate(8.75,149.875)"/>
<path d="M0 0 C1.3 0.3 2.6 0.7 4 1 C1.4 3.2 -0.5 3.2 -3.9 3.2 C-5.3 3.2 -5.3 3.2 -6.7 3.2 C-8.2 3.2 -8.2 3.2 -9.7 3.1 C-10.7 3.1 -11.7 3.1 -12.7 3.1 C-15.1 3.1 -17.6 3 -20 3 C-20 2.7 -20 2.3 -20 2 C-19.4 2 -18.9 1.9 -18.3 1.9 C-15.7 1.8 -13.1 1.7 -10.6 1.6 C-9.7 1.5 -8.8 1.5 -7.8 1.4 C-7 1.4 -6.1 1.4 -5.3 1.3 C-4.5 1.3 -3.7 1.2 -2.9 1.2 C-1 1.2 -1 1.2 0 0 Z " fill="#78564B" transform="translate(20,160)"/>
<path d="M0 0 C2.3 2 4.6 4 7 6 C6 6 5 6 4 6 C3.3 7.3 2.7 8.6 2 10 C-0.8 7 -0.1 3.8 0 0 Z " fill="#44A66D" transform="translate(35,118)"/>
<path d="M0 0 C2.7 3.4 6 7.5 6 12 C4.7 12 3.4 12 2 12 C0.4 7.7 -0.2 4.5 0 0 Z " fill="#0E2316" transform="translate(25,105)"/>
<path d="M0 0 C2.6 0 5.3 0 8 0 C7.3 0.9 7.3 0.9 6.5 1.8 C4.7 4 4.7 4 5 7 C4.3 7 3.7 7 3 7 C3 6.3 3 5.7 3 5 C2.3 5 1.7 5 1 5 C0.7 3.4 0.3 1.7 0 0 Z " fill="#465638" transform="translate(66,25)"/>
<path d="M0 0 C3.3 0 6.6 0 10 0 C10 0.3 10 0.7 10 1 C9.5 1 9.1 1.1 8.6 1.1 C4.8 1.5 4.8 1.5 1.5 3 C-0.7 4.4 -2.8 4.5 -5.4 4.8 C-7.1 4.9 -7.1 4.9 -9 6 C-8.7 5 -8.3 4 -8 3 C-5.7 3 -3.4 3 -1 3 C-0.7 2 -0.3 1 0 0 Z " fill="#EBE6E4" transform="translate(113,172)"/>
<path d="M0 0 C0.6 0 1.2 0.1 1.9 0.1 C2.5 0.2 2.5 0.2 3.2 0.2 C3.6 1.2 3.9 2.2 4.2 3.2 C-1.7 3.7 -1.7 3.7 -7.8 4.2 C-3.2 -0.2 -3.2 -0.2 0 0 Z " fill="#5FC98A" transform="translate(97.75,147.75)"/>
<path d="M0 0 C0.8 0.1 1.6 0.3 2.5 0.4 C6.4 1.1 10.4 1.6 14.4 2.1 C15.1 2.2 15.8 2.2 16.6 2.3 C18.4 2.6 20.2 2.8 22 3 C22 3.3 22 3.7 22 4 C17 4.1 12 4.1 7.1 3.7 C6.4 3.6 5.6 3.6 4.9 3.5 C2.6 2.9 1.6 1.8 0 0 Z " fill="#A98615" transform="translate(143,75)"/>
<path d="M0 0 C0.7 0 1.3 0 2 0 C2 0.7 2 1.3 2 2 C5.3 2 8.6 2 12 2 C11.7 2.7 11.3 3.3 11 4 C7.4 4 3.7 4 0 4 C0 2.7 0 1.4 0 0 Z " fill="#3D2D24" transform="translate(0,156)"/>
<path d="M0 0 C3 0 5.9 0 9 0 C8.7 1.3 8.3 2.6 8 4 C7 4.3 6 4.7 5 5 C5.3 4 5.7 3 6 2 C3.4 2.3 0.7 2.7 -2 3 C-1.3 2 -0.7 1 0 0 Z " fill="#E5B017" transform="translate(151,111)"/>
<path d="M0 0 C1.7 0 3.3 0 5 0 C3.5 2 3.5 2 2 4 C1.3 4 0.7 4 0 4 C-0.3 5 -0.7 6 -1 7 C-1.7 7 -2.3 7 -3 7 C-3 5.7 -3 4.4 -3 3 C-2 3 -1 3 0 3 C0 2 0 1 0 0 Z " fill="#D7A315" transform="translate(131,110)"/>
<path d="M0 0 C4 1.5 5.1 3.4 7 7 C6.3 8.3 5.7 9.6 5 11 C4.3 11 3.7 11 3 11 C2.9 10.2 2.9 10.2 2.9 9.4 C2.8 8.6 2.7 7.9 2.6 7.2 C2.6 6.5 2.5 5.8 2.4 5 C2 2.9 1.3 1.7 0 0 Z " fill="#2E2308" transform="translate(181,80)"/>
<path d="M0 0 C1.1 1 2.3 1.9 3.4 2.9 C4.1 3.4 4.7 3.9 5.4 4.5 C7 6 7 6 8 8 C6.3 7.7 4.7 7.3 3 7 C3 6.3 3 5.7 3 5 C2 4.7 1 4.3 0 4 C0 2.7 0 1.4 0 0 Z " fill="#3C9761" transform="translate(109,46)"/>
<path d="M0 0 C1.7 0 3.3 0 5 0 C5 1 5 2 5 3 C4 3 3 3 2 3 C1.7 3.3 1.3 3.7 1 4 C-0.6 4.1 -0.6 4.1 -2.6 4.1 C-3.5 4 -3.5 4 -4.5 4 C-5.2 4 -5.2 4 -6 4 C-6 3 -6 2 -6 1 C-4.3 1.3 -2.7 1.7 -1 2 C-0.7 1.3 -0.3 0.7 0 0 Z " fill="#C5AFA9" transform="translate(92,178)"/>
<path d="M0 0 C3.7 0.5 5.6 1.1 8 4 C7.7 5 7.3 6 7 7 C4.1 5.7 2 4.4 0 2 C0 1.3 0 0.7 0 0 Z " fill="#625D42" transform="translate(131,160)"/>
<path d="M0 0 C1.7 0.3 3.3 0.7 5 1 C5.2 4 4.9 5.6 3 8 C1.3 8 -0.3 8 -2 8 C-1.4 7.8 -0.7 7.5 -0.1 7.2 C2.2 6.2 2.2 6.2 2.8 3.9 C2.8 3.3 2.9 2.6 3 2 C2 1.7 1 1.3 0 1 C0 0.7 0 0.3 0 0 Z " fill="#396850" transform="translate(85,98)"/>
<path d="M0 0 C0.7 0 1.3 0 2 0 C1 4.6 0.4 7.5 -4 10 C-4.7 9.7 -5.3 9.3 -6 9 C-5.1 7.9 -5.1 7.9 -4.1 6.8 C-2.4 4.6 -1.1 2.5 0 0 Z " fill="#B88B11" transform="translate(188,88)"/>
<path d="M0 0 C1 0.3 2 0.7 3 1 C2.7 1.7 2.3 2.3 2 3 C1.3 3 0.7 3 0 3 C-0.3 4.6 -0.7 6.3 -1 8 C-1.7 8 -2.3 8 -3 8 C-3.3 8.7 -3.7 9.3 -4 10 C-4.4 5.4 -4.4 5.4 -2.6 3.3 C-1.8 2.7 -1.8 2.7 -1 2 C-0.7 1.3 -0.3 0.7 0 0 Z " fill="#1E1E0D" transform="translate(15,53)"/>
<path d="M0 0 C2.3 0 4.6 0 7 0 C6.7 0.7 6.3 1.3 6 2 C4.3 2.3 2.7 2.7 1 3 C0.7 4 0.3 5 0 6 C-1.3 5.7 -2.6 5.3 -4 5 C-3 5 -2 5 -1 5 C-0.7 3.3 -0.3 1.7 0 0 Z " fill="#F1EEEC" transform="translate(91,175)"/>
<path d="M0 0 C1.3 1 2.6 2 4 3 C4 4 4 5 4 6 C4.7 6 5.3 6 6 6 C4.8 8.3 4.4 8.4 2 9 C2 7.7 2 6.4 2 5 C1.3 5 0.7 5 0 5 C0 3.3 0 1.7 0 0 Z " fill="#6CBD67" transform="translate(123,112)"/>
<path d="M0 0 C2.3 0 4.6 0 7 0 C7.7 1 8.3 2 9 3 C6 2.5 6 2.5 3 2 C3 2.7 3 3.3 3 4 C2 3.7 1 3.3 0 3 C0 2 0 1 0 0 Z " fill="#345044" transform="translate(84,94)"/>
<path d="M0 0 C1 0 2 0 3 0 C3 2.3 3 4.6 3 7 C2 7.3 1 7.7 0 8 C0 5.4 0 2.7 0 0 Z " fill="#040502" transform="translate(10,75)"/>
<path d="M0 0 C3 0 5.9 0 9 0 C9 1 9 2 9 3 C8.1 3.1 7.1 3.1 6.2 3.2 C5.7 3.2 5.1 3.3 4.6 3.3 C3 3 3 3 0 0 Z " fill="#454527" transform="translate(156,69)"/>
<path d="M0 0 C2.5 0.5 2.5 0.5 5 1 C5 1.7 5 2.3 5 3 C5.7 3 6.3 3 7 3 C7.3 4.6 7.7 6.3 8 8 C6.9 7 5.7 6.1 4.6 5.1 C3.9 4.6 3.3 4.1 2.6 3.5 C1 2 1 2 0 0 Z " fill="#153622" transform="translate(114,50)"/>
<path d="M0 0 C1.6 0 3.3 0 5 0 C-1.1 6.3 -1.1 6.3 -6 6 C-5.7 5 -5.3 4 -5 3 C-3.4 3 -1.7 3 0 3 C0 2 0 1 0 0 Z " fill="#1D1E0C" transform="translate(36,33)"/>
<path d="M0 0 C2.7 2.4 4 4.5 5 8 C4.5 10.2 4.5 10.2 4 12 C3.3 10.8 2.7 9.5 2 8.2 C1.6 7.6 1.3 6.9 0.9 6.1 C-0 3.9 -0.2 2.4 0 0 Z " fill="#423029" transform="translate(132,174)"/>
<path d="M0 0 C0.3 0.7 0.7 1.3 1 2 C2.5 2.6 2.5 2.6 4 3 C2.6 4.4 1.6 4.1 -0.4 4.1 C-1.1 4.1 -1.7 4.1 -2.4 4.1 C-3.1 4.1 -3.8 4.1 -4.6 4.1 C-5.3 4.1 -6 4.1 -6.7 4 C-8.5 4 -10.2 4 -12 4 C-12 3.7 -12 3.3 -12 3 C-6.6 2.5 -6.6 2.5 -1 2 C-0.7 1.3 -0.3 0.7 0 0 Z " fill="#1B160F" transform="translate(12,157)"/>
<path d="M0 0 C0 4.6 0 9.2 0 14 C-0.3 14 -0.7 14 -1 14 C-1.1 13.4 -1.1 12.8 -1.2 12.2 C-1.3 11 -1.3 11 -1.4 9.8 C-1.5 9 -1.6 8.2 -1.7 7.4 C-2 5.2 -2.4 3.1 -3 1 C-2 0 -2 0 0 0 Z " fill="#26270B" transform="translate(31,129)"/>
<path d="M0 0 C0.3 0.7 0.7 1.3 1 2 C2 2.3 3 2.7 4 3 C4.3 5.3 4.7 7.6 5 10 C4.3 9.7 3.7 9.3 3 9 C3 8 3 7 3 6 C2.3 6 1.7 6 1 6 C0.7 4 0.3 2 0 0 Z " fill="#2A6A43" transform="translate(23,99)"/>
<path d="M0 0 C0.3 0 0.7 0 1 0 C1.2 4.8 1.2 8.6 -1 13 C-1.3 13 -1.7 13 -2 13 C-2.2 8.2 -2.2 4.4 0 0 Z " fill="#418B61" transform="translate(50,77)"/>
<path d="M0 0 C0.7 0.3 1.3 0.7 2 1 C1.7 1.7 1.3 2.3 1 3 C-2.6 3.7 -6.3 4.3 -10 5 C-9.7 4 -9.3 3 -9 2 C-8.4 1.9 -7.9 1.9 -7.3 1.8 C-6.6 1.7 -5.8 1.6 -5.1 1.6 C-4.3 1.5 -3.6 1.4 -2.8 1.3 C-1 1.2 -1 1.2 0 0 Z " fill="#252517" transform="translate(52,28)"/>
<path d="M0 0 C1 0 2 0 3 0 C2.7 1 2.3 2 2 3 C1 3 0 3 -1 3 C-0.3 4.3 0.3 5.6 1 7 C-0.3 7 -1.6 7 -3 7 C-2.7 5.3 -2.3 3.7 -2 2 C-1.3 2 -0.7 2 0 2 C0 1.3 0 0.7 0 0 Z " fill="#E0D9D7" transform="translate(32,155)"/>
<path d="M0 0 C0.7 0 1.3 0 2 0 C2.3 1.3 2.7 2.6 3 4 C4.7 4 6.3 4 8 4 C8 4.7 8 5.3 8 6 C7.3 6 6.7 6 6 6 C5.7 6.7 5.3 7.3 5 8 C4.2 7 3.3 6.1 2.5 5.1 C2 4.6 1.6 4.1 1.1 3.5 C0 2 0 2 0 0 Z " fill="#38463F" transform="translate(119,154)"/>
<path d="M0 0 C2 0 4 0 6 0 C5.7 1 5.3 2 5 3 C3.7 3 2.4 3 1 3 C0.7 4 0.3 5 0 6 C-1.2 3.5 -0.8 2.6 0 0 Z " fill="#838A56" transform="translate(160,109)"/>
<path d="M0 0 C1.2 0.6 2.3 1.2 3.4 1.8 C4.4 2.3 4.4 2.3 5.4 2.8 C7.2 4.1 7.6 4.9 8 7 C7 7 6 7 5 7 C5 6.3 5 5.7 5 5 C3.3 4.7 1.7 4.3 0 4 C0 2.7 0 1.4 0 0 Z " fill="#449C6A" transform="translate(72,104)"/>
<path d="M0 0 C1.3 0 2.6 0 4 0 C5.3 2 6.6 4 8 6 C7.7 6.7 7.3 7.3 7 8 C5.8 6.9 4.7 5.7 3.5 4.6 C2.9 3.9 2.2 3.3 1.5 2.6 C0 1 0 1 0 0 Z " fill="#163723" transform="translate(106,42)"/>
<path d="M0 0 C2.6 0 5.3 0 8 0 C4.1 1.9 1.7 3.1 -2.6 3.1 C-3.9 3 -3.9 3 -5.1 3 C-6 3 -6 3 -7 3 C-7 2.7 -7 2.3 -7 2 C-4.7 2 -2.4 2 0 2 C0 1.3 0 0.7 0 0 Z " fill="#39905C" transform="translate(60,35)"/>
<path d="M0 0 C3.2 3.4 3.3 5.5 3 10 C2.7 9.3 2.3 8.7 2 8 C1.3 8 0.7 8 0 8 C0 5.4 0 2.7 0 0 Z " fill="#614940" transform="translate(129,168)"/>
<path d="M0 0 C0.7 0 1.3 0 2 0 C2 1.3 2 2.6 2 4 C1.3 4 0.7 4 0 4 C0 4.7 0 5.3 0 6 C-1.3 5.7 -2.6 5.3 -4 5 C-2.7 3.3 -1.4 1.7 0 0 Z " fill="#AAAAA8" transform="translate(36,149)"/>
<path d="M0 0 C1.3 0.1 2.5 0.2 3.8 0.4 C4.4 0.4 5.1 0.5 5.9 0.6 C8 1 8 1 12 3 C8.7 3 5.4 3 2 3 C2 2.3 2 1.7 2 1 C1.3 0.7 0.7 0.3 0 0 Z " fill="#408960" transform="translate(80,138)"/>
<path d="M0 0 C0.3 0 0.7 0 1 0 C1 2 1 4 1 6 C-0.7 7.3 -2.3 8.6 -4 10 C-2.9 6.5 -1.7 3.2 0 0 Z " fill="#439767" transform="translate(113,130)"/>
<path d="M0 0 C1 3.1 1 4.9 0 8 C-1 8.3 -2 8.7 -3 9 C-2.1 2.6 -2.1 2.6 0 0 Z " fill="#205234" transform="translate(127,124)"/>
<path d="M0 0 C1.6 0.5 3.2 0.9 4.8 1.4 C6.2 1.8 6.2 1.8 7.5 2.1 C9.7 2.9 11.2 3.6 13 5 C7.6 5.5 4.5 4 0 1 C0 0.7 0 0.3 0 0 Z " fill="#396750" transform="translate(51,117)"/>
<path d="M0 0 C4.5 0.4 4.5 0.4 6 2.2 C6.7 3.4 7.4 4.7 8 6 C7.7 6.7 7.3 7.3 7 8 C5.8 6.9 4.7 5.7 3.5 4.6 C2.9 3.9 2.2 3.3 1.5 2.6 C0 1 0 1 0 0 Z " fill="#1A3F28" transform="translate(122,58)"/>
<path d="M0 0 C-0.3 1.7 -0.7 3.3 -1 5 C-3 6 -3 6 -5 7 C-4.7 6 -4.4 5 -4.1 4.1 C-3.9 3.5 -3.7 3 -3.5 2.4 C-2.7 0.2 -2.4 0 0 0 Z " fill="#030502" transform="translate(131,130)"/>
<path d="M0 0 C0.3 1.3 0.7 2.6 1 4 C0 4.3 -1 4.7 -2 5 C-2 5.7 -2 6.3 -2 7 C-3.3 6.7 -4.6 6.3 -6 6 C-4 4 -2 2 0 0 Z " fill="#449C69" transform="translate(94,104)"/>
<path d="M0 0 C2.9 3.3 3.5 5.7 4 10 C3 9.7 2 9.3 1 9 C0.7 6 0.3 3.1 0 0 Z " fill="#0D1E13" transform="translate(20,95)"/>
<path d="M0 0 C2.3 0.7 4.6 1.3 7 2 C7 3.7 7 5.3 7 7 C5.8 6 4.7 5 3.5 4.1 C2.9 3.5 2.2 3 1.5 2.4 C0 1 0 1 0 0 Z " fill="#459F6B" transform="translate(107,73)"/>
<path d="M0 0 C2 1 4 2 6 3 C6 3.7 6 4.3 6 5 C6.7 5.3 7.3 5.7 8 6 C7 6.3 6 6.7 5 7 C5 6.3 5 5.7 5 5 C4.4 4.7 3.7 4.5 3.1 4.2 C0.8 2.9 0.4 2.5 0 0 Z " fill="#202019" transform="translate(133,58)"/>
<path d="M0 0 C2 1.6 4 3.3 6 5 C6 5.3 6 5.7 6 6 C4.3 6 2.7 6 1 6 C0.7 4 0.3 2 0 0 Z " fill="#3D9862" transform="translate(117,54)"/>
<path d="M0 0 C2.6 0 5.3 0 8 0 C8.3 1 8.7 2 9 3 C3.4 2.2 3.4 2.2 0 0 Z " fill="#31413D" transform="translate(58,129)"/>
<path d="M0 0 C1.3 0 2.6 0 4 0 C4 0.7 4 1.3 4 2 C5 2.3 6 2.7 7 3 C7 3.7 7 4.3 7 5 C3.2 4.5 2 3.1 0 0 Z " fill="#31403C" transform="translate(38,118)"/>
<path d="M0 0 C3 0.5 3 0.5 6 1 C5.7 2.3 5.3 3.6 5 5 C3.3 5 1.7 5 0 5 C1 4.3 2 3.7 3 3 C2 2 1 1 0 0 Z " fill="#439666" transform="translate(95,52)"/>
<path d="M0 0 C0.7 0.3 1.3 0.7 2 1 C-2 4.5 -2 4.5 -6 8 C-6 7 -6 6 -6 5 C-4 3.4 -2 1.7 0 0 Z " fill="#398E5B" transform="translate(33,46)"/>
<path d="M0 0 C1.3 0.3 2.6 0.7 4 1 C-1.2 6.4 -1.2 6.4 -4 8 C-2.9 5.1 -1.8 2.5 0 0 Z " fill="#122E1D" transform="translate(32,42)"/>
<path d="M0 0 C6.4 -0.5 6.4 -0.5 8.9 1.5 C9.3 2 9.6 2.5 10 3 C8 3 6 3 4 3 C4 2.3 4 1.7 4 1 C2.7 0.7 1.4 0.3 0 0 Z " fill="#388D5A" transform="translate(89,35)"/>
<path d="M0 0 C-0.3 0.7 -0.7 1.3 -1 2 C-4 2 -6.9 2 -10 2 C-10 1.7 -10 1.3 -10 1 C-3.7 -1.4 -3.7 -1.4 0 0 Z " fill="#403107" transform="translate(163,104)"/>
<path d="M0 0 C0.7 0 1.3 0 2 0 C2.3 3 2.7 5.9 3 9 C-0.7 5.3 -0.3 4.8 0 0 Z " fill="#173823" transform="translate(15,81)"/>
<path d="M0 0 C-0.3 1 -0.7 2 -1 3 C-1.5 3.1 -1.9 3.2 -2.4 3.4 C-4.2 3.9 -4.2 3.9 -5 6 C-5.7 6 -6.3 6 -7 6 C-4.2 0 -4.2 0 0 0 Z " fill="#C4BF38" transform="translate(129,67)"/>
<path d="M0 0 C0 1 0 2 0 3 C-0.5 3.1 -0.9 3.2 -1.4 3.4 C-3.2 4 -3.2 4 -5 6 C-5.2 -0.2 -5.2 -0.2 0 0 Z " fill="#676E4C" transform="translate(11,69)"/>
<path d="M0 0 C2 1.6 4 3.3 6 5 C5 5.3 4 5.7 3 6 C2 5.3 1 4.7 0 4 C0 2.7 0 1.4 0 0 Z " fill="#3E9963" transform="translate(123,60)"/>
<path d="M0 0 C2.9 1.1 4.8 1.8 7 4 C5.3 5.7 3.3 5.1 1 5 C0.7 3.4 0.3 1.7 0 0 Z " fill="#3B7154" transform="translate(92,51)"/>
<path d="M0 0 C1.8 0.3 2.8 0.7 3.9 2.2 C4.6 3.4 5.3 4.7 6 6 C5 6.5 5 6.5 4 7 C4 6.3 4 5.7 4 5 C2.7 4.7 1.4 4.3 0 4 C0 2.7 0 1.4 0 0 Z " fill="#232418" transform="translate(119,44)"/>
<path d="M0 0 C3.4 1.4 5 3 7 6 C5.3 5.7 3.7 5.3 2 5 C1.3 3.4 0.7 1.7 0 0 Z " fill="#378A59" transform="translate(102,40)"/>
</svg>
